<?xml version="1.0" standalone="no"?>
<!DOCTYPE svg PUBLIC "-//W3C//DTD SVG 1.1//EN" "http://www.w3.org/Graphics/SVG/1.1/DTD/svg11.dtd" >
<svg xmlns="http://www.w3.org/2000/svg" xmlns:xlink="http://www.w3.org/1999/xlink" version="1.1">
<metadata></metadata>
<defs>
<font id="milky_honeyregular" horiz-adv-x="845" >
<font-face units-per-em="2048" ascent="1638" descent="-410" />
<missing-glyph horiz-adv-x="614" />
<glyph horiz-adv-x="0" />
<glyph unicode="&#xd;" horiz-adv-x="614" />
<glyph horiz-adv-x="0" />
<glyph horiz-adv-x="0" />
<glyph unicode=" "  horiz-adv-x="614" />
<glyph unicode="&#x09;" horiz-adv-x="614" />
<glyph unicode="&#xa0;" horiz-adv-x="614" />
<glyph unicode="!" horiz-adv-x="493" d="M45 106q-25 63 2 114t90 61q68 10 131.5 -26t91.5 -99q29 -66 1.5 -118t-93.5 -61q-33 -4 -66.5 3.5t-64.5 25t-54.5 44t-37.5 56.5zM109 958q2 141 29.5 269.5t97.5 242.5q12 20 27.5 38t35.5 30q43 23 93 -3t75 -81q-2 -6 -1 -18.5t3 -26.5q-10 -80 -16.5 -160 t-16.5 -157q-14 -135 -30.5 -270.5t-32.5 -272.5q-2 -4 -2 -11.5t-4 -13.5q-10 -41 -41 -58t-72 -9q-45 10 -77 41.5t-38 79.5q-12 96 -23.5 190t-6.5 190z" />
<glyph unicode="&#x22;" horiz-adv-x="641" d="M96 1241q0 66 2 146.5t11 146.5q4 39 37.5 54.5t71.5 10t67.5 -29t23.5 -60.5q-2 -29 -6 -67.5t-8 -79.5t-10 -79t-13 -66q-10 -37 -38.5 -49.5t-59.5 -6.5t-54.5 27.5t-23.5 52.5zM360 1241q0 66 2.5 146.5t10.5 146.5q4 39 37.5 54.5t71.5 10t68 -29t23 -60.5 q-2 -29 -6 -67.5t-8 -79.5t-10 -79t-12 -66q-10 -37 -39 -49.5t-59.5 -6.5t-54.5 27.5t-24 52.5z" />
<glyph unicode="#" horiz-adv-x="1333" d="M62.5 813.5q11.5 28.5 46.5 38.5q29 10 61.5 12t67.5 2q37 0 56 16.5t30 47.5q43 113 100 211q27 49 76 84q25 16 55.5 15t65.5 -23q68 -41 63 -117q-2 -59 -12 -125q-3 -33 -13 -70q63 -16 98.5 -4t49.5 66q10 41 28.5 78.5t36.5 76.5q16 39 50 51.5t75 -2.5 q41 -16 68 -54t31 -85q2 -37 -2 -71.5t-9 -73.5q16 -6 32 -9.5t32 -7.5q23 -10 43 -17t41 -17q29 -18 44 -47t11 -56q-6 -57 -71 -47q-25 0 -49.5 2t-51.5 4q-37 0 -56.5 -1t-29.5 -9t-15 -27.5t-11 -56.5q16 -4 30.5 -8t28.5 -8q82 -29 92 -88q4 -33 -13.5 -53.5 t-56.5 -24.5q-23 0 -45 -1t-45 1q-61 0 -75 -54q-12 -61 -26.5 -119.5t-31.5 -117.5q-4 -14 -6 -27.5t-6 -25.5q-27 -82 -105 -52q-80 29 -79 119q0 39 1 74t3 72q2 23 4 47t6 53q-41 0 -74 1t-67 -5q-10 -2 -19.5 -12.5t-13.5 -20.5q-10 -37 -17.5 -74.5t-15.5 -76.5 q-2 -12 -4 -25.5t-6 -28.5q-12 -39 -41 -52t-66 -3q-39 12 -66.5 43t-35.5 72q-4 29 -4 58.5t-2 60.5q-2 8 -3 16t-1 20q-23 2 -40.5 2t-33.5 5q-39 10 -68.5 40.5t-38.5 65.5q-10 39 10.5 66.5t59.5 31.5q29 2 59.5 1t61.5 -1q4 23 6 46.5t6 54.5q-23 0 -42 -1t-38 1 q-41 0 -74.5 22.5t-48.5 61.5q-12 31 -0.5 59.5zM592 612q43 -6 67.5 -8t37 4t14.5 22.5t0 45.5q-41 6 -62.5 7t-34 -5t-16.5 -21.5t-6 -44.5z" />
<glyph unicode="$" horiz-adv-x="1005" d="M41 420q-6 41 5 72.5t46 46.5q72 27 146 -41q27 -31 73.5 -44.5t98 -14.5t100.5 10.5t80 29.5q102 63 -25 146q-31 23 -64.5 40t-68.5 33q-35 23 -72.5 43.5t-72.5 42.5q-84 59 -119 133t-12 154q10 41 30.5 80t51.5 68q41 39 90 68.5t102 55.5q29 12 42 29t13 51 q4 25 7.5 49.5t7.5 47.5q4 18 7 34.5t11 30.5q16 41 48 54.5t73 -3.5q43 -16 66.5 -53t19.5 -88q-4 -31 -11.5 -62.5t-11.5 -68.5q23 -10 42.5 -20.5t39.5 -22.5q57 -33 97.5 -77t56.5 -92t10 -97t-37 -88q-16 -20 -39.5 -28.5t-58.5 1.5t-56.5 34.5t-31.5 57.5 q-10 29 -20.5 46.5t-22.5 26.5t-29.5 9t-44.5 -4q-74 -12 -113.5 -36.5t-49 -54.5t13 -62.5t76.5 -63.5q55 -35 112.5 -66.5t110.5 -72.5q74 -59 119 -128t59 -138.5t-3.5 -134t-68.5 -115.5q-33 -35 -76 -59.5t-88 -43.5q-31 -12 -46 -30.5t-15 -53.5q4 -43 -8 -78 q-8 -47 -41 -66.5t-78 -8.5q-49 14 -80 52t-37 91q-2 18 -1 35.5t1 38.5q-12 4 -26.5 11t-30.5 13q-51 20 -100.5 48t-96.5 69q-41 35 -66.5 76t-33.5 88z" />
<glyph unicode="%" horiz-adv-x="1386" d="M76.5 1068q-17.5 71 5.5 140q23 78 82 119t145 45q78 6 164 -16q72 -18 125 -61.5t92 -108.5q6 -8 9 -16.5t10 -16.5q4 -8 18 -23l18.5 18.5l18.5 18.5q35 45 68.5 88t68.5 88q14 14 27.5 30t32.5 26q23 18 54.5 13t59.5 -28q27 -23 35 -53.5t-2 -58.5 q-4 -14 -14.5 -28.5t-18.5 -29.5q-102 -176 -203.5 -348t-197.5 -352q-47 -84 -81 -176t-71 -182q-10 -29 -21.5 -55.5t-23.5 -49.5q-45 -80 -125 -37q-37 18 -57.5 53t-13.5 78q4 39 10 75t18 69q45 111 89 219t91 219q8 16 15.5 32.5t17.5 39.5h-112q-82 6 -153 44 t-117 96t-63.5 129zM319 1090q-12 -41 15.5 -59.5t64.5 -20.5t71 11t38 36q10 16 8 32.5t-24 32.5q-133 84 -173 -32zM672 403q2 12 3 26.5t3 27.5q14 59 46 106t71 88q31 33 79 42t99 5q66 4 127 -19.5t109 -68.5t77 -107.5t29 -133.5q0 -94 -37 -167t-107 -126t-159.5 -52 t-171.5 54t-128 142t-40 183zM965 287q94 20 112 102q2 10 -4 24.5t-14 20.5q-14 14 -31.5 18.5t-28.5 -12.5q-18 -31 -33 -65.5t-1 -87.5z" />
<glyph unicode="&#x26;" horiz-adv-x="1368" d="M59 408q8 45 23.5 88t40.5 77q35 51 77 96.5t83 86.5q16 16 33.5 29.5t33.5 29.5q-6 14 -10 24.5t-8 20.5q-86 201 -57.5 361.5t167.5 259.5q41 29 87 46t106 17q76 2 146.5 -27.5t123.5 -81t85 -119t30 -140.5q0 -129 -74 -218q-47 -55 -98 -104t-103 -100 q-14 -14 -30.5 -28.5t-36.5 -31.5q47 -47 93 -94t99 -100q8 63 14.5 117.5t12.5 107.5q2 8 0 16.5t-2 14.5q4 35 20.5 54t53.5 26q33 2 63.5 -12.5t52.5 -45.5q18 -29 35 -61.5t25 -63.5q23 -98 17.5 -186t-48.5 -170q74 -51 141 -90q59 -39 67.5 -89t-40.5 -77 q-39 -23 -81 -17.5t-91 27.5q-35 16 -70.5 38t-76.5 44q-12 -8 -27.5 -18.5t-32.5 -20.5q-98 -63 -214 -91t-259 1q-41 6 -82 20.5t-82 34.5q-111 59 -168 152.5t-39 196.5zM336 344q8 -41 53 -66.5t106.5 -31.5t129 11t118.5 62q-29 29 -55 56.5t-55 56.5 q-27 29 -54.5 59.5t-58.5 65.5q-111 -63 -151.5 -117.5t-32.5 -95.5zM511 1065.5q1 -54.5 19 -109.5q51 35 94.5 73t77.5 81q33 45 56 102q8 23 11 47.5t-26 47.5q-27 20 -49 15t-45 -15h-4q-43 -20 -72.5 -56.5t-46 -83.5t-15.5 -101.5z" />
<glyph unicode="'" horiz-adv-x="391" d="M96 1241q0 66 2 146.5t11 146.5q4 39 37.5 54.5t71.5 10t67.5 -29t23.5 -60.5q-2 -29 -6 -67.5t-8 -79.5t-10 -79t-13 -66q-10 -37 -38.5 -49.5t-59.5 -6.5t-54.5 27.5t-23.5 52.5z" />
<glyph unicode="(" horiz-adv-x="970" d="M81.5 715q6.5 121 41.5 235q47 143 116.5 267t166.5 229q49 51 105 92t130 53q23 4 43.5 3t42.5 -5q70 -6 98 -78q16 -37 12.5 -62.5t-26.5 -47.5q-63 -63 -117.5 -134t-97.5 -153q-53 -102 -92 -214t-47 -243q-6 -154 69 -305q33 -61 77 -109t104 -81q25 -16 49 -28.5 t49 -27.5q68 -35 87 -78.5t2 -81.5t-64.5 -62.5t-108.5 -20.5q-86 4 -187.5 42t-209.5 130q-96 82 -143.5 195.5t-74.5 228.5q-31 135 -24.5 256z" />
<glyph unicode=")" horiz-adv-x="970" d="M72.5 1504q17.5 38 64.5 61.5t109 21.5q86 -4 187.5 -42t209.5 -130q49 -41 84 -90t59.5 -104.5t42 -114t31.5 -115.5q31 -135 25 -256t-41 -235q-47 -143 -117 -267t-166 -229q-49 -51 -105.5 -92t-129.5 -53q-23 -4 -43.5 -3t-42.5 5q-70 6 -99 78q-16 37 -12 62.5 t27 47.5q63 63 117.5 134t97.5 153q53 102 92 214t47 243q6 154 -70 305q-33 61 -77 109t-103 81q-25 16 -49.5 28.5t-48.5 26.5q-68 35 -87.5 79t-2 82z" />
<glyph unicode="*" horiz-adv-x="835" d="M98 1206q-4 29 10.5 45.5t43.5 20.5q55 6 110 6q55 6 72 45q27 66 65 133q20 39 44 49.5t57 -2.5q37 -16 57.5 -44.5t26.5 -80.5q2 -20 2 -39.5t4 -42.5q23 -8 44 -14t42 -14q39 -16 60.5 -46t21.5 -59q-2 -61 -90 -55q-19 4 -56 8q0 -27 1 -47t3 -37q0 -20 2.5 -38.5 t-2.5 -37.5q-6 -70 -71 -65q-66 4 -105 78q-8 16 -15 36.5t-17 49.5q-10 -20 -17.5 -34.5t-17.5 -27.5q-37 -70 -109 -39q-63 33 -57 119v25q-12 4 -23.5 8t-23.5 10q-31 16 -45.5 39t-16.5 51z" />
<glyph unicode="+" horiz-adv-x="800" d="M66 594q-20 70 36 98q18 10 41 14.5t50 10.5q14 2 28.5 2h30.5h63q4 20 7.5 39.5t5.5 38.5q18 96 94 80q41 -10 67.5 -39t36.5 -74q2 -14 2 -26.5t4 -28.5q53 -8 101 -27q43 -12 68.5 -42t23.5 -65q0 -70 -88 -69h-121q-2 -20 -4 -38.5t-6 -39.5q-2 -16 -2 -31.5 t-6 -31.5q-6 -31 -27.5 -45.5t-50.5 -10.5q-31 4 -56.5 24.5t-35.5 55.5q-8 27 -11.5 54.5t-9.5 62.5q-41 0 -74.5 -2t-68.5 2t-61.5 29.5t-36.5 58.5z" />
<glyph unicode="," horiz-adv-x="309" d="M51 7q-4 32 2 65q4 25 5 59.5t8 91.5q4 33 21 51.5t42 22.5t51.5 -3t46.5 -22q31 -23 34 -65.5t-9 -87.5t-34.5 -86.5t-45.5 -59.5q-39 -35 -78 -14q-39 16 -43 48z" />
<glyph unicode="-" d="M80 582q-10 41 13.5 65.5t64.5 20.5q135 -4 254.5 0t236.5 2q45 2 78 -17.5t42 -48.5t-12.5 -58.5t-84.5 -47.5q-129 -20 -240.5 -17t-228.5 13q-47 2 -80 26.5t-43 61.5z" />
<glyph unicode="." horiz-adv-x="342" d="M55 176q-12 59 18.5 93t73.5 40t86.5 -16.5t59.5 -75.5q8 -68 -23.5 -102.5t-75.5 -37.5t-86 22.5t-53 76.5z" />
<glyph unicode="/" horiz-adv-x="770" d="M57 57q0 20 2 40t7 40q14 82 28.5 163t32.5 163q47 223 110.5 436t151.5 434q23 61 50.5 118.5t58.5 117.5q20 35 53 55.5t70 20.5t55 -18.5t26.5 -46.5t6.5 -63.5t-4 -68.5q-25 -172 -68 -336t-97.5 -324.5t-118 -319.5t-130.5 -321q-10 -27 -23.5 -51t-29.5 -49 q-23 -31 -54.5 -46t-60.5 -11q-59 6 -66 67z" />
<glyph unicode="0" horiz-adv-x="1032" d="M66.5 717q7.5 92 27.5 180q23 98 56.5 191.5t87.5 171.5q70 98 163 161q27 23 66 34t78 13q102 10 192 -42t150 -150q49 -80 71.5 -161t24.5 -163q8 -223 -38 -422.5t-157 -371.5q-53 -94 -149 -146q-55 -33 -116.5 -37t-123 17.5t-117 67.5t-98.5 114q-51 84 -78.5 174 t-37 183.5t-2 185.5zM430 412q10 -84 38 -95.5t79 66.5q137 197 174 459q6 39 5 89t-9 97t-24.5 84t-40 48t-57.5 -11t-77 -94q-125 -291 -88 -643z" />
<glyph unicode="1" horiz-adv-x="817" d="M46 847q-9 34 15 62q53 68 101.5 139.5t97.5 142.5t103.5 137.5t121.5 125.5q16 12 31.5 25.5t32.5 25.5q33 18 71.5 18.5t74.5 -14t66 -42t44 -64.5q14 -29 17 -56.5t-1 -56.5q-4 -53 -11 -102t-15 -101q-35 -205 -70 -405.5t-70 -405.5q-10 -63 -17 -124.5t-17 -124.5 q-4 -45 -33 -66.5t-74 -15.5q-49 4 -87 36.5t-48 79.5q-6 31 -12.5 63t-10.5 64q-10 154 -2 302.5t39 295.5q4 14 5 28.5t3 31.5q-4 2 -5 5t-5 3q-14 -12 -26.5 -24.5t-28.5 -22.5q-23 -16 -46.5 -32.5t-51.5 -29.5q-35 -14 -79 -1.5t-75 40.5q-29 29 -38 63z" />
<glyph unicode="2" horiz-adv-x="1159" d="M36 147q-7 41 11 80q20 43 50 80t65 70q104 100 211.5 196.5t212.5 196.5q51 53 95 112.5t89 118.5q31 39 35 69t-12.5 47.5t-49 22.5t-75.5 -7q-203 -57 -275 -256q-8 -20 -8 -44t-2 -49q0 -53 -36 -74.5t-95 1.5q-84 31 -123 118q-29 59 -32 115.5t12 108.5 q47 154 152.5 243.5t264.5 128.5q115 31 242 5q68 -16 125 -52.5t101 -84.5t72 -107.5t34 -122.5q10 -84 -9.5 -153.5t-54.5 -131.5q-43 -80 -104.5 -147.5t-128.5 -128.5q-47 -47 -95.5 -90t-95.5 -90q0 -8 4 -13h74q51 -2 100.5 0t102.5 -4q35 -4 68.5 -17.5t68.5 -31.5 q31 -16 48.5 -46t13.5 -60q-2 -61 -72 -68q-332 -47 -658 -86q-35 -4 -68.5 -6t-68.5 2q-49 2 -90 24.5t-66.5 56t-32.5 74.5z" />
<glyph unicode="3" horiz-adv-x="1148" d="M39 301q-6 41 4 71.5t51 41.5q76 25 154 -37q29 -25 54.5 -33t53.5 -12q143 -16 234.5 32t152.5 132q20 29 17 69q-2 25 -14.5 47.5t-32 40t-46 26.5t-57.5 9q-10 0 -20 -1t-27 -1q-45 0 -87 16.5t-77 57.5q-78 84 -28 155q16 23 37.5 40.5t40.5 37.5q51 53 100 102.5 t98 102.5q43 57 33 73.5t-43 11.5t-74 -24.5t-59 -33.5q-29 -23 -52.5 -48.5t-52.5 -48.5q-12 -10 -26.5 -20t-34.5 -14q-25 -6 -52.5 1t-52 23.5t-43 40t-24.5 51.5q-4 23 -4 45.5t10 40.5q53 109 149.5 174.5t243.5 79.5q72 6 152 -14q104 -27 174 -98.5t82 -163.5 q10 -84 -14.5 -149.5t-57.5 -125.5q-18 -35 -39.5 -68.5t-42.5 -68.5q8 -4 16.5 -12t16.5 -16q117 -88 176 -187.5t70 -208.5q12 -115 -38 -215t-145.5 -164.5t-228.5 -83t-289 32.5q-53 16 -105 42t-99 54q-66 37 -103 88.5t-51 108.5z" />
<glyph unicode="4" horiz-adv-x="1218" d="M53 374q-6 44 15 81q20 45 53 84q78 109 154.5 212t148.5 214q66 104 125 215.5t121 220.5q10 16 18 32.5t25 28.5q45 47 133 17q41 -16 66.5 -43t31.5 -62q4 -41 6 -84t-6 -78q-23 -111 -62.5 -211t-93.5 -192q-35 -66 -70.5 -127t-76.5 -133q49 2 89 4t81 2 q23 2 29 15.5t10 27.5q20 49 40.5 98t43.5 97q20 41 57 50t84 -9q45 -20 68.5 -55.5t19.5 -84.5q-10 -137 -31.5 -291.5t-29.5 -328.5q-2 -18 -7 -36t-12 -34q-14 -25 -40.5 -35t-59.5 -6q-35 6 -61.5 27.5t-42.5 52.5q-10 18 -15.5 38.5t-9.5 39.5q-8 45 -11 89t-12 93 q-33 -8 -61.5 -16t-60.5 -13q-106 -16 -214 -29.5t-219 -29.5q-49 -6 -96 13.5t-84 60.5t-43 85z" />
<glyph unicode="5" horiz-adv-x="1171" d="M61 668q2 35 9.5 64.5t17.5 58.5q29 74 60.5 145.5t58.5 148.5q16 49 24.5 103.5t14.5 107.5q4 66 34.5 104t96.5 48q84 12 172 3t178 -26q35 -6 70 -28q41 -23 69.5 -55.5t36.5 -75.5q8 -41 -10.5 -70t-52.5 -39q-39 -12 -78 -18t-78 -13q-35 -4 -69.5 -2t-69.5 2 q-10 -41 -18.5 -75.5t-16.5 -73.5q45 -4 83 -7t77 -12q88 -16 168 -64t140 -116.5t96 -151.5t36 -165q-2 -178 -117 -305q-78 -90 -177 -135.5t-203.5 -50.5t-208 26t-189.5 90q-104 70 -117 184q-6 37 6.5 62.5t35 39t55 11.5t67.5 -23q92 -53 175 -58t161 17 q63 16 108.5 54.5t77.5 91.5q10 14 16.5 31.5t10.5 35.5q6 35 -5 68t-33.5 60.5t-55.5 46t-70 22.5q-25 2 -49.5 1t-46.5 -9q-66 -18 -118 -52t-87 -87q-20 -37 -55 -60q-29 -23 -68 -22.5t-80 26.5q-41 29 -63.5 65t-18.5 77z" />
<glyph unicode="6" horiz-adv-x="983" d="M49 524q-10 162 25 302.5t94 275.5q29 66 63.5 126t73.5 120q23 31 52.5 55t62.5 45q18 14 42.5 20.5t53.5 8.5q45 2 84 -19.5t68 -64.5q31 -43 30.5 -81t-18.5 -73q-41 -74 -79 -147.5t-77 -149.5q-4 -10 -6 -22t-10 -35q33 0 54.5 1t43.5 -1q117 -6 203 -80t115 -189 q10 -43 13 -83.5t1 -79.5q-8 -150 -68.5 -259.5t-171.5 -185.5q-84 -57 -194 -55q-109 4 -203 68.5t-156 168.5q-47 86 -69.5 168t-26.5 166zM444 272q59 2 110.5 45t82.5 109q18 37 21.5 88t-10 88t-46.5 43t-88 -47q-43 -39 -66.5 -121t-3.5 -205z" />
<glyph unicode="7" horiz-adv-x="921" d="M63 1178q-18 100 80 133q92 29 182.5 59.5t182.5 54.5q39 12 79 23.5t85 11.5q45 2 87 -19.5t71.5 -58t44 -84t8.5 -96.5q-4 -29 -13.5 -55.5t-19.5 -52.5q-39 -104 -76 -206t-76 -204q-6 -16 -10 -36.5t-12 -49.5q31 -2 56.5 -4t47.5 -6q74 -16 94 -86q10 -35 -1 -63.5 t-46 -37.5q-37 -8 -74.5 -13t-76.5 -7q-41 -2 -60.5 -22.5t-29.5 -55.5q-20 -76 -44 -146.5t-50 -136.5q-25 -66 -62 -83t-84 4q-49 25 -76.5 75t-23.5 123q2 47 6 95.5t8 101.5h-33.5t-29.5 2q-41 4 -76 37t-45 80t9 76.5t62 31.5q12 2 24.5 1t23.5 -1q31 0 57.5 4t48 16.5 t36.5 36t21 62.5q12 68 39 130t47 128q6 23 13.5 43.5t17.5 54.5q-33 -6 -56.5 -12t-45.5 -6q-41 -4 -87 -3t-89 13q-53 12 -88 54t-46 94z" />
<glyph unicode="8" horiz-adv-x="909" d="M45 326q-16 111 5.5 200.5t64.5 171.5q14 29 19 59.5t-5 71.5q-31 113 -16.5 208.5t53.5 181.5q66 147 176.5 224t280.5 68q76 -2 142 -34.5t116.5 -87t79 -128t28.5 -157.5q2 -53 -6 -107.5t-29 -97.5q-33 -78 -75.5 -145.5t-83.5 -139.5q-14 -18 -30 -35t-34 -40 q14 -20 23.5 -36t17.5 -28q51 -94 59.5 -179t-36.5 -157q-113 -176 -320 -207q-74 -10 -145.5 17.5t-131 81t-100.5 130.5t-53 165zM355.5 365.5q-11.5 -58.5 6.5 -129.5q78 -10 125.5 23.5t83.5 92.5q-47 35 -91 64.5t-95 62.5q-18 -55 -29.5 -113.5zM393 918 q-16 -53 4.5 -93.5t91.5 -91.5q16 59 44 111.5t56.5 103.5t54.5 105.5t42 115.5q-10 4 -15 7.5t-9 3.5q-207 -43 -269 -262z" />
<glyph unicode="9" horiz-adv-x="1009" d="M66 432q16 63 88 62q41 0 69.5 -21.5t50.5 -56.5q33 -49 60.5 -79t56.5 -34t59.5 21t71.5 84q-18 4 -29.5 6t-21.5 4q-172 33 -276.5 137t-128.5 270q-23 176 35.5 303t183.5 215q31 23 69.5 34.5t79.5 15.5q125 16 218 -27t156.5 -124t98.5 -188.5t43 -219.5 q12 -211 -37 -388.5t-170 -318.5q-47 -55 -105 -93t-134 -50q-86 -16 -169 10t-155 100q-156 162 -114 338zM369 762q4 -43 27.5 -63.5t70.5 -28.5q47 -4 88 6t76 29q10 4 17 14t7 24t-1 53.5t-7 86.5t-16 95t-28.5 81t-44 42t-62.5 -22q-145 -113 -127 -317z" />
<glyph unicode=":" horiz-adv-x="380" d="M55 274q-12 59 18.5 93t73.5 40.5t86.5 -16.5t59.5 -76q8 -68 -23.5 -102.5t-75.5 -37.5t-86 22.5t-53 76.5zM86 737q-12 59 18.5 93t73.5 40.5t86.5 -16.5t59.5 -76q8 -68 -24 -102.5t-76 -37.5t-86 22.5t-52 76.5z" />
<glyph unicode=";" horiz-adv-x="380" d="M51 134q-4 32 2 65q4 25 5 59.5t8 91.5q4 33 21 51.5t42 22.5t51.5 -3t46.5 -22q31 -23 34 -65.5t-9 -87.5t-34.5 -86.5t-45.5 -59.5q-39 -35 -78 -14q-39 16 -43 48zM86 737q-12 59 18.5 93t73.5 40.5t86.5 -16.5t59.5 -76q8 -68 -24 -102.5t-76 -37.5t-86 22.5 t-52 76.5z" />
<glyph unicode="&#x3c;" horiz-adv-x="804" d="M93 578.5q-9 35.5 1 69.5t41 59q10 8 23.5 13t23.5 9q78 39 156 75t156 73q94 47 170 -29q35 -35 44 -79t-18 -85q-25 -37 -56.5 -67.5t-64.5 -63.5q16 -10 37 -20.5t41 -22.5q80 -55 72 -121q-4 -31 -28.5 -49t-65.5 -10q-104 14 -210 43.5t-208 79.5q-47 25 -76 57.5 t-38 68z" />
<glyph unicode="=" horiz-adv-x="704" d="M72 414q-10 39 8 65.5t59 36.5q4 0 5 1t3 1q86 4 168 8t168 4q53 0 89 -22.5t49 -61.5q16 -39 -1.5 -69.5t-68.5 -40.5q-86 -14 -178 -17t-174 7q-45 2 -79 27.5t-48 60.5zM86 670q-20 59 23 88q12 8 27.5 12t29.5 6q61 6 120.5 9t119.5 8q23 0 45 -1t45 -8 q37 -12 60.5 -36.5t31.5 -53.5q12 -63 -43 -84q-16 -6 -33.5 -10t-36.5 -4q-33 -2 -63.5 -1t-65.5 1q0 -2 2 -4h-112q-16 2 -35 3t-35 7q-27 6 -48.5 22.5t-31.5 45.5z" />
<glyph unicode="&#x3e;" horiz-adv-x="804" d="M98 389q-8 66 72 121q20 12 41 22.5t37 20.5q-33 33 -64.5 63.5t-56.5 67.5q-27 41 -17.5 85t44.5 79q76 76 170 29q78 -37 155.5 -73t155.5 -75q10 -4 23.5 -9t23.5 -13q31 -25 41 -59t1 -69.5t-38 -68.5t-76 -57q-102 -49 -207.5 -79t-209.5 -44q-41 -8 -66 10t-29 49z " />
<glyph unicode="?" horiz-adv-x="1429" d="M63 1174q2 61 25 113t62 95q125 137 317 181q129 31 260 29.5t270 -38.5q49 -12 92.5 -30.5t90.5 -40.5q117 -59 163 -151.5t7 -194.5q-18 -47 -44 -88t-57 -80q-35 -41 -78 -77t-84 -73q-53 -49 -107 -97t-106 -104q-35 -39 -61.5 -84t-54.5 -85q-10 -16 -18.5 -36 t-22.5 -32q-20 -23 -46 -29t-63 4q-68 20 -92 86q0 6 -1 10.5t-3 10.5q-6 68 -4 132t17.5 123.5t47 113t84.5 98.5q76 63 152 124.5t152 127.5q45 37 63 58.5t13 34.5t-32.5 22.5t-76.5 19.5q-119 25 -225.5 13.5t-204.5 -52.5q-29 -14 -59.5 -31.5t-50 -39t-23 -46 t21.5 -55.5q18 -20 38.5 -37.5t43.5 -34.5q90 -59 78 -129q-18 -78 -115 -78q-70 -2 -136.5 28t-118.5 79t-84 111.5t-30 128.5zM483 174q-10 57 26 96t97 41q63 0 113.5 -39t64.5 -96q10 -57 -25.5 -98t-94.5 -43q-31 0 -62 10t-55.5 28.5t-42 44t-21.5 56.5z" />
<glyph unicode="@" horiz-adv-x="1507" d="M64 644.5q-3 105.5 18 209.5q27 133 92.5 246.5t157.5 195.5t204.5 129.5t232.5 49.5t242 -45.5t232 -153.5q217 -205 203 -455q-4 -80 -28.5 -149.5t-78.5 -122.5q-37 -41 -85 -61.5t-101 -18.5t-107.5 26.5t-103.5 73.5q-2 4 -6 5.5t-8 3.5q-29 -16 -58.5 -34 t-60.5 -32q-53 -23 -110.5 -17.5t-118.5 50.5q-59 47 -87 103.5t-28 119.5q0 45 16 90q72 219 297 285q39 10 81 8t85 -25q66 -29 102.5 -82t32.5 -112q-2 -35 -5 -66.5t-1 -62.5q0 -20 5 -43t7 -45q12 0 19 -6q10 12 22.5 22t22.5 23q29 45 38 97t1 112q-6 39 -28.5 76.5 t-55.5 69.5t-76 54.5t-88 32.5q-131 29 -231 -18q-190 -94 -283.5 -252t-83.5 -387q2 -45 23 -99q35 -94 110.5 -154.5t171.5 -70.5q66 -8 124 -2t112 23q86 27 164.5 61.5t150.5 85.5q8 4 15.5 8t15.5 8q23 14 49.5 8t50.5 -26q27 -20 40 -48t3 -57q-14 -39 -47 -73 q-59 -61 -130 -112.5t-157 -90.5q-217 -98 -483 -14q-160 51 -278.5 165.5t-170.5 270.5q-39 117 -42 222.5zM670 752q-6 -43 10 -84q182 61 164 250q-47 -4 -84 -28t-60.5 -59.5t-29.5 -78.5z" />
<glyph unicode="A" horiz-adv-x="1101" d="M78 274q35 319 132 603t284 526q31 41 67.5 75.5t71.5 65.5q31 31 72 43q29 9 59 9q10 0 20 -1q40 -4 76.5 -23.5t65 -51t41.5 -72.5q10 -35 13 -71t5 -72q2 -172 3 -341t5 -341q2 -111 7.5 -217.5t11.5 -215.5q4 -37 12 -76.5t16 -80.5q2 -13 2 -24q0 -53 -47 -64 q-29 -6 -61.5 5t-54.5 44q-18 27 -33 55.5t-23 56.5q-16 51 -25.5 103t-21.5 115q-90 -27 -167 -48.5t-150 -46.5q-16 -6 -24.5 -20t-14.5 -31q-14 -31 -21.5 -63.5t-21.5 -63.5q-21 -47 -63 -63q-22 -9 -47 -9q-23 0 -48 7q-49 16 -85 55t-46 92q-6 37 -9 73q-2 22 -2 42 q0 13 1 26zM506 494q68 10 127 16t112 14q-2 125 -5 244t-7 238q-76 -117 -133 -243t-94 -269z" />
<glyph unicode="B" horiz-adv-x="1159" d="M79 700q-2 41 -2 82q0 183 40 359q16 72 41.5 140.5t54.5 135.5q10 27 33.5 47.5t48.5 32.5q29 13 59 13h4q32 -1 63.5 -16t58 -42t42.5 -63q6 -16 11.5 -32t15.5 -36q12 10 23.5 15t21.5 12q35 23 68.5 44t70.5 38q41 23 88 26q25 4 50 4q39 0 75 -10q58 -16 100 -54 q40 -38 62 -94q17 -43 17 -92q0 -14 -1 -28q-8 -57 -26.5 -110.5t-44.5 -100.5q-33 -61 -75 -114.5t-83 -108.5q-6 -10 -17.5 -22t-21.5 -28q20 -10 35.5 -15t30.5 -13q88 -41 134 -113q38 -59 38 -123q0 -14 -2 -28q-4 -39 -18.5 -74t-35.5 -64q-68 -98 -169 -147t-228 -68 q-35 -6 -68.5 -11t-70.5 -9q-23 -2 -36 -9.5t-24 -31.5q-28 -76 -95 -76q-18 0 -40 6q-53 14 -87 50t-50 85q-12 47 -20.5 90t-18.5 91q-41 236 -52 462zM485 266q51 23 102.5 43.5t99.5 46t90 59.5t75 85q-50 15 -101 15q-17 0 -35 -2q-68 -7 -121.5 -40t-85.5 -86 q-26 -42 -26 -94q0 -13 2 -27zM530 721q63 41 127 106.5t114 136t80 138.5q26 60 26 101v11q-59 -18 -122 -75.5t-115 -130t-84 -150.5q-27 -66 -27 -118q0 -10 1 -19z" />
<glyph unicode="C" horiz-adv-x="1394" d="M63 743q16 225 104.5 403.5t276.5 297.5q90 59 196 90q78 23 168 23q32 0 66 -3q123 -10 220.5 -75.5t150.5 -175.5q25 -47 29 -93q1 -12 1 -24q0 -34 -9 -66q-47 -143 -179 -207q-23 -12 -54.5 -15t-59.5 -1q-41 4 -74 31.5t-39 62.5q-10 31 5.5 53.5t54.5 32.5 q46 12 72 47q25 34 25 66q1 36 -31 57q-18 12 -49 12q-21 0 -48 -6q-57 -14 -100.5 -43.5t-79.5 -66.5q-123 -133 -173 -296q-29 -95 -29 -205q0 -78 15 -163q28 -164 191 -164h12q115 2 197 64q61 41 114.5 89t89.5 110q8 16 19 24q26 26 60 26q23 0 50 -12 q33 -14 53.5 -39.5t24.5 -54.5q2 -14 2 -27q0 -31 -10 -59q-29 -76 -67.5 -143.5t-91 -122.5t-121 -97t-154.5 -67q-73 -20 -147 -23h-19q-66 0 -139 17q-174 45 -303 168t-187 295q-37 106 -37 211q0 35 4 69z" />
<glyph unicode="D" horiz-adv-x="1581" d="M33 1167q4 31 14 59.5t27 53.5q35 59 84 101t110 77q25 14 49.5 29.5t49.5 28.5q6 4 13 9t19 5q68 12 136.5 22.5t138.5 14.5q28 2 57 2q43 0 88 -4q74 -6 152 -27q182 -49 314 -165t188 -290q23 -59 29 -119q3 -35 2 -69q0 -24 -1 -47q-12 -190 -95 -332.5t-220 -249.5 q-125 -96 -266.5 -164.5t-303.5 -109.5q-12 -4 -26 -6t-19 -9q-16 -20 -37.5 -28t-45 -10t-50 1t-51.5 5q-45 4 -83 23.5t-62 60.5q-31 45 -36 88q-1 6 -1 12q0 35 26 59q33 31 36 69q1 10 1 21q0 29 -6 64q-23 168 -38 333q-8 92 -8 181q0 72 5 143q0 4 -1 10.5t-1 16.5 q-10 -2 -19 -4t-20 -2h-11q-29 0 -53 9q-28 11 -48.5 31.5t-30.5 48.5t-6 58zM591 355.5q-5 -21.5 17 -50.5q184 109 330 244q55 53 106.5 112.5t81.5 131.5q20 43 35 89t19 95q1 15 1 29q-1 86 -51 152q-60 77 -174 108q-100 28 -200 28q-53 0 -107 -8v-162 q-4 -186 -16 -367.5t-35 -361.5q-2 -18 -7 -39.5z" />
<glyph unicode="E" horiz-adv-x="1153" d="M66 527.5q0 74.5 10 148.5q31 246 119 467l-37 37q-52 56 -52 106q0 27 15 53q20 35 51 52q128 77 278 105q49 9 103 10q108 0 231 -38q43 -14 85 -32.5t77 -53.5q38 -34 54 -74q9 -24 10 -47q0 -14 -4 -28q-23 -55 -88 -55q-18 0 -39 4q-20 8 -29 8q-37 0 -74 2 q-12 1 -24 1q-24 0 -45 -3q-23 -2 -33 -13.5t-14.5 -26.5t-5.5 -32.5t-7 -32.5q-20 -57 -34.5 -116.5t-34.5 -122.5q23 0 40 -2t31 2q23 0 44.5 1t43.5 1q59 0 98 -22.5t56 -63.5q11 -24 11 -44q0 -51 -66 -79q-72 -29 -146 -51.5t-147 -42.5q-29 -10 -43.5 -26.5 t-16.5 -47.5v-26q1 -65 9 -104q10 -46 32.5 -64.5t57 -15.5t81 16.5t103.5 33t125 31.5q18 8 41 14q13 2 24 2q56 0 99 -47q35 -39 35 -78q0 -22 -11 -43q-10 -29 -35 -47q-86 -66 -182 -119t-217 -73q-38 -6 -75 -6q-60 -1 -116 15q-92 26 -168.5 83t-130 142t-73.5 190 q-16 78 -16 152.5z" />
<glyph unicode="F" horiz-adv-x="1224" d="M45 1424q2 34 29 53q29 16 56.5 30.5t59.5 18.5q78 16 159 26.5t163 14.5q52 2 118 4q44 1 91 1h47q72 -1 141.5 -6t124.5 -20q37 -10 74 -38q36 -29 56 -64q14 -25 15 -50q-1 -9 -3 -18q-8 -33 -58 -49q-119 -29 -242.5 -40t-244.5 -11q-10 -104 -17.5 -204.5 t-17.5 -211.5q18 0 32.5 -2t26.5 -2q78 0 152 1h50q50 0 101 -1q100 0 146 -76q14 -23 14 -45q0 -13 -4 -25q-14 -32 -61 -44q-41 -14 -85 -19.5t-89 -13.5q-76 -10 -151 -17.5t-150 -15.5q-10 -104 -19.5 -205.5t-19.5 -206.5q-4 -43 -7.5 -86t-11.5 -84q-8 -42 -36 -64 q-23 -17 -56 -18q-8 0 -16 1q-59 6 -106.5 41.5t-61.5 91.5q-16 61 -25.5 120.5t-19.5 118.5q-8 63 -13.5 127t-11.5 127q0 20 -6 36.5t-23 33.5q-41 47 -41 83q0 39 46 70q25 12 30 43q20 104 39 211t39 213q4 4 1 5.5t-5 7.5q-14 2 -29.5 2t-29.5 4q-43 4 -76 26.5 t-53 55.5q-21 32 -21 64v6z" />
<glyph unicode="G" horiz-adv-x="1476" d="M72 629q-3 46 -3 90q0 257 99 455q117 231 387 374q70 37 149 52q64 13 134 13q18 0 36 -1q119 -4 221.5 -57.5t172 -133.5t98.5 -178q14 -49 14 -97t-14 -95q-23 -68 -67 -118t-117 -75q-25 -10 -51 -10q-16 0 -33 4q-43 10 -74 45q-33 31 -40 69q-2 9 -2 17q0 28 19 53 q25 35 30 73q3 21 3 43q0 18 -2 36q-4 29 -17.5 43t-43.5 16q-33 0 -65 -3t-54 -17q-45 -23 -84 -49.5t-70 -59.5q-92 -100 -140 -222t-58 -267q-1 -16 -1 -32q0 -44 8 -89q11 -62 40 -123q33 -74 79 -105q35 -22 85 -22q16 0 34 2q231 29 328 199q2 6 2 26q-47 -10 -92 -17 t-92 -15q-24 -4 -46 -4q-100 0 -151 75q-21 31 -21 61q0 11 3 23q12 41 61 70q78 51 172.5 76.5t196.5 38.5q12 1 25 1q41 0 81 -14q54 -20 99 -57t73.5 -85t32.5 -99q2 -33 -1 -61.5t-13 -57.5q-39 -117 -107.5 -212t-173.5 -167q-66 -47 -144.5 -70.5t-172.5 -27.5 q-14 -1 -27 -1q-292 0 -510 246q-92 104 -140 215t-56 226z" />
<glyph unicode="H" horiz-adv-x="1628" d="M74 607q0 36 28 57q53 35 119 51q33 8 45.5 26.5t7.5 57.5q0 125 6.5 235.5t30 213t67.5 196.5t122 186q26 29 62 36q9 2 18 2q30 0 67 -17q51 -27 78 -65t35 -83q8 -41 12 -83q2 -21 2 -41.5t-2 -39.5q-4 -68 -7 -118t-7 -96t-9.5 -95t-9.5 -117q-4 -16 -5 -33t-1 -42 q86 10 165 17t159 15q23 4 25.5 18.5t2.5 33.5q4 72 7.5 142.5t13.5 139.5q14 88 33.5 173t44.5 169q6 29 23.5 53.5t37.5 42.5q31 29 77 32h9q42 0 90 -25q55 -29 86 -71t47 -91q14 -63 17 -117q0 -66 1 -127v-24q0 -49 -3 -99q-23 -252 -46.5 -500.5t-45.5 -502.5 q-4 -23 -8.5 -48.5t-14.5 -45.5q-16 -43 -54 -57q-17 -6 -37 -6q-23 0 -50 9q-51 16 -88 54t-49 92q-16 68 -27.5 133t-22.5 131q-8 59 -15 118.5t-15 123.5q-18 0 -35 2t-29 -2q-76 -16 -148.5 -29.5t-148.5 -28.5q-47 -6 -47 -51q-8 -86 -14 -193.5t-15 -193.5 q0 -16 -1 -31.5t-5 -30.5q-7 -45 -39 -64q-21 -12 -47 -12q-14 0 -30 3q-49 10 -93.5 44t-62.5 85q-23 59 -35 141t-29 141q-8 33 -14 68q-18 -4 -30.5 -7t-24.5 -3q-6 -1 -13 -1l-65 18q-39 20 -68 56q-28 37 -28 75z" />
<glyph unicode="I" horiz-adv-x="622" d="M88 692v42q0 212 37 417q14 82 41 160t55 157q4 20 15.5 38t23.5 34q27 33 67 46q18 6 38 6q25 0 55 -9q47 -14 88 -53t70 -111q2 -29 7 -70.5t5 -86.5q0 -172 -19.5 -334t-48.5 -324q-23 -129 -42 -260t-40 -260q-6 -23 -8 -43.5t-10 -40.5q-16 -40 -56 -58 q-22 -9 -47 -10q-21 0 -45 7q-45 14 -81.5 44.5t-51.5 77.5q-10 41 -16 82t-10 76q-23 239 -27 473z" />
<glyph unicode="J" horiz-adv-x="1437" d="M70 469q4 178 109.5 283.5t281.5 156.5q23 6 45 6t43 -6q41 -12 72 -45q42 -42 42 -83q0 -31 -24 -62q-16 -20 -35.5 -37.5t-36.5 -40.5q-29 -35 -58.5 -74t-53.5 -80q-21 -33 -21 -69q0 -26 10 -53q10 -35 29 -48.5t53 -13.5q27 0 52.5 3t46.5 13q35 20 67.5 43t57.5 52 q29 37 53 76.5t41 80.5q57 137 92 280.5t51 297.5q4 12 2 24.5t2 28.5q-82 -4 -155.5 -8t-145.5 -8q-27 -2 -54.5 4t-53.5 14q-53 12 -89 45t-49 74q-8 22 -8 42q0 21 8 39q17 36 64 52q23 6 47.5 10t48.5 11q135 18 271.5 37.5t273.5 41.5q18 2 38.5 3.5t41.5 -0.5 q35 -6 63.5 -22.5t46 -39t20.5 -49.5t-11 -51q-14 -22 -14 -50q0 -19 7 -42q23 -78 30 -156t7 -154q-2 -182 -28.5 -354t-104.5 -328q-31 -59 -69.5 -116.5t-92.5 -104.5q-141 -133 -354 -153q-30 -3 -60 -3q-96 0 -187 30q-120 38 -212 112t-147 175q-53 97 -53 208v8z" />
<glyph unicode="K" horiz-adv-x="1390" d="M85 638v9q0 256 52 504q16 70 39 138.5t45 133.5q10 29 29.5 53.5t42.5 45.5q35 29 81 33q9 1 17 1l75 -14q46 -18 85 -53t59 -84q16 -39 22.5 -79t10.5 -79q3 -22 3 -43q0 -12 -1 -22q-2 -32 -6 -62q0 -30 -4 -60q-2 -15 -2 -31.5t2 -33.5q10 10 22.5 17.5t22.5 17.5 q86 74 169 150.5t169 154.5q20 14 39.5 27.5t44.5 23.5q25 13 57 13q7 -1 13 -1q40 -4 85 -32q39 -28 59 -66q15 -28 15 -54q0 -11 -2 -21q-6 -51 -31 -97q-31 -41 -61.5 -81.5t-65.5 -77.5q-92 -88 -186 -172t-192 -168q-10 -12 -21.5 -21.5t-28.5 -25.5q23 -10 39.5 -16.5 t28.5 -12.5q86 -39 172 -77t172 -79q29 -12 54.5 -28.5t50.5 -32.5q57 -46 57 -97q0 -10 -2 -20q-6 -29 -28.5 -44t-57.5 -17q-16 2 -31.5 4t-34.5 6q-143 29 -288.5 72t-286.5 120q-10 6 -23.5 12.5t-36.5 16.5q-12 -53 -23 -103t-24 -102q-10 -43 -19 -85t-18 -85 q-10 -18 -17 -37.5t-17 -35.5q-25 -29 -62 -38q-13 -3 -28 -3q-26 0 -56 10q-94 35 -129 125q-8 14 -10 32.5t-6 34.5q-33 274 -34 536z" />
<glyph unicode="L" horiz-adv-x="929" d="M84 432q2 240 35 463t98 440q14 47 39 91t47 90q33 55 115 57h11q27 -1 55 -9q34 -10 61.5 -29t46 -48t22.5 -60t1 -61.5t-7 -60.5q-47 -223 -71.5 -453.5t-28.5 -470.5q-4 -27 -5 -57v-12q0 -25 3 -58q39 12 69.5 21.5t61.5 17.5q33 8 63 8q81 0 131 -59q36 -42 36 -85 q0 -46 -48 -79q-53 -39 -109.5 -74t-121.5 -57q-50 -19 -104 -19q-12 0 -23 1q-66 5 -125.5 34t-109.5 77t-83 114q-35 72 -47 141.5t-12 136.5z" />
<glyph unicode="M" horiz-adv-x="1495" d="M70 383q-1 64 -1 127q0 190 9 372q12 242 51 484q6 57 45 82q26 16 62 16q19 0 40 -4q59 -14 114.5 -56t80.5 -99q16 -49 26.5 -97.5t22.5 -95.5l55 -227q4 -4 7.5 -4t5.5 -2q8 16 14 28.5t14 22.5q55 123 110.5 238.5t137.5 222.5q35 45 72 89t74 87q40 47 106 55 q13 2 28 2q53 0 109 -25q74 -33 128.5 -94t66.5 -131q8 -39 8 -74.5t-4 -72.5q-4 -57 -12 -114.5t-19 -115.5q-16 -131 -17 -267t-1 -271q-2 -109 -7 -212.5t-12 -209.5q0 -20 -6 -33q-20 -62 -86 -62q-8 0 -18 1q-96 4 -156 82q-25 27 -42 55.5t-29 56.5q-47 125 -72 247 t-29 239q0 10 -2 23t-2 26q0 -2 -8 12q-14 -27 -27 -53q-20 -41 -38.5 -82t-41.5 -80q-27 -43 -61 -72q-41 -28 -94 -28q-24 -1 -50 5q-85 18 -157 97q-25 27 -49.5 56.5t-53.5 70.5q-2 -25 -4 -44t0 -38l7 -455q0 -16 1 -30.5t-4 -30.5q-6 -63 -76 -63h-7q-39 0 -73 18 t-56 49q-41 47 -48 92q-12 72 -22 143.5t-10 143.5z" />
<glyph unicode="N" horiz-adv-x="1361" d="M84 283q-14 138 -14 269q0 140 16 274q31 258 96 505q10 37 27.5 69t34.5 66q6 20 24 35q29 29 78 31h7q46 0 100 -25q59 -29 100 -70.5t55 -95.5q4 -18 6 -37.5t2 -35.5q49 -360 252 -740q6 -10 11.5 -18t9.5 -18q4 0 7 -1.5t7 -1.5q6 80 8 163t13 161q12 115 23 227.5 t28 225.5q10 59 29.5 112.5t39.5 108.5q6 16 16.5 29.5t26.5 21.5q25 17 56 17h10q37 -3 84 -23q43 -25 72.5 -56.5t40.5 -72.5q4 -16 6 -33.5t4 -34.5q-4 -53 -6 -109.5t-13 -109.5q-47 -229 -73.5 -459.5t-40.5 -472.5q0 -29 -2 -54.5t-13 -51.5q-10 -46 -40 -68 q-28 -21 -66 -21h-4q-41 1 -89 27.5t-98 75.5q-59 59 -108 123t-92 129q-51 78 -91 157t-85 161q-8 16 -19.5 33.5t-27.5 39.5q-6 -10 -8.5 -22.5t-4.5 -24.5q-4 -145 -10 -289.5t-14 -289.5q-4 -23 -2 -45.5t-2 -45.5q-9 -47 -51 -63q-18 -7 -41 -7q-27 0 -60 11 q-59 16 -109.5 59t-68.5 97q-27 82 -37 168z" />
<glyph unicode="O" horiz-adv-x="1368" d="M41 750q2 147 44 270t110 233q55 92 137 160t186 103q83 31 173 31q77 0 159 -23q150 -41 262.5 -147.5t163.5 -254.5q33 -90 41 -173q4 -37 4 -74q0 -46 -6 -91q-33 -223 -127 -403t-246 -322q-66 -57 -141 -88q-66 -30 -138 -30q-25 -1 -51 3q-98 14 -183 72 t-147.5 149t-82.5 204q-8 47 -9.5 91t-5.5 93q-8 4 -15 7t-15 7q-63 37 -88 77t-25 106zM518 360q0 -29 9.5 -60.5t50.5 -61.5q23 10 49 19t45 26q162 127 247 305t87 407q0 31 -9.5 68t-19.5 72q-41 119 -164 125q-10 1 -19 1q-57 1 -101 -21q-52 -24 -105 -66 q16 -10 25.5 -16.5t17.5 -10.5q66 -43 82 -93q5 -15 5 -29q0 -35 -28 -67q-68 -74 -102.5 -170t-57.5 -200q-10 -52 -12 -110q-1 -29 -1 -58.5t1 -59.5z" />
<glyph unicode="P" horiz-adv-x="1318" d="M68 793q-1 21 -1 43q0 100 16 194q19 114 52 223q12 41 32.5 80t43.5 74q23 37 55 57q26 17 66 18q8 0 16 -1q23 0 38 11t32 17q68 35 140 53q55 14 120 15q21 0 43 -2q102 -12 191 -55t159 -113t116 -161t62 -197q10 -62 10 -120q0 -37 -4 -73q-12 -109 -63 -215 t-143.5 -185t-227.5 -117q-77 -22 -168 -22q-69 0 -147 13q-10 2 -19.5 2t-23.5 2q-4 -59 -8 -121.5t-9 -124.5q0 -10 2.5 -21.5t0.5 -21.5q1 -7 1 -14q0 -37 -20 -57q-22 -24 -63 -25q-6 -1 -12 -1q-37 0 -73 22q-42 26 -71 71q-23 33 -38 68.5t-26 70.5q-74 309 -79 613z M496 623q10 0 18 -3.5t14 -1.5q10 4 19.5 5.5t19.5 5.5q135 57 220 159.5t133 247.5q10 23 9 53.5t-5 59.5q-6 59 -70 88q-30 13 -68 13q-9 0 -19 -1q-50 -4 -94 -22.5t-77 -49t-37 -63.5q-16 -104 -28.5 -206.5t-28.5 -207.5q-2 -18 -2 -36t-4 -41z" />
<glyph unicode="Q" horiz-adv-x="1314" d="M59 633q0 182 45.5 341t141.5 294q41 59 91 107t128 69q16 8 27.5 17t23.5 14q35 14 66.5 30.5t70.5 24.5q44 8 88 8q50 0 101 -10q94 -21 172 -72t135 -129t82 -174q14 -59 21.5 -113.5t7.5 -109.5q0 -201 -49.5 -381t-149.5 -338q-18 -31 -42 -58.5t-46 -56.5 q-12 -16 -19.5 -24.5t-7.5 -16.5t6 -20t21 -33q4 -8 9 -13t9 -12q25 -38 25 -67q0 -28 -23 -49q-23 -20 -55 -23h-7q-30 0 -59 19q-35 23 -65.5 47t-65.5 53q-37 -8 -77 -12q-84 0 -162 25.5t-146.5 72.5t-126 115.5t-96.5 152.5q-37 82 -54.5 162t-19.5 160zM452 439.5 q3 -25.5 13 -53.5t25.5 -50.5t33.5 -32.5q14 -10 31.5 -11t40.5 -3q-6 23 -10 39l-8 32q-14 72 -18 144q-1 10 -1 21q0 59 21 110q14 29 31.5 54.5t37.5 49.5q28 22 61 22q29 0 62 -16q76 -33 88 -108q0 -10 2 -18.5t4 -18.5q14 0 15 6q57 94 85 198q17 67 17 141 q0 43 -6 89q-6 63 -39 133q-31 61 -75 82q-18 9 -39 9q-27 0 -58 -17q-37 -23 -70.5 -52.5t-62.5 -64.5q-82 -117 -122 -256q-36 -126 -36 -267v-28q0 -25 -6 -47t-14 -45q-6 -16 -3 -41.5z" />
<glyph unicode="R" horiz-adv-x="1376" d="M62 1000q-10 24 -10 51q0 29 11 63q25 66 66 120t86 103q37 43 66 95q18 25 34.5 52t36.5 52q39 45 108 45q21 0 44 -4q20 -6 39.5 -3t38.5 7q66 17 136 25q21 2 44 2q50 0 104 -11q96 -18 179 -66t144.5 -115.5t97.5 -148.5t38 -167v-12q1 -79 -23 -145 q-26 -71 -67 -134q-61 -86 -138 -154.5t-165 -128.5q-23 -16 -45.5 -33.5t-48.5 -33.5q29 -35 57.5 -68t61 -61.5t68.5 -52t81 -37.5q49 -16 80 -50t41 -75q5 -17 5 -32q0 -59 -73 -81q-29 -8 -58 -8q-25 0 -51 6q-56 12 -112 35q-92 39 -174 94t-160 121q-35 29 -55.5 43 t-32.5 12t-19.5 -18.5t-13.5 -46.5q-8 -41 -17 -84t-20 -84q-4 -18 -10 -36t-16 -30q-20 -23 -51 -26t-62 8.5t-59.5 36t-42.5 59.5q-10 23 -18.5 50.5t-8.5 51.5q-4 160 -9 318t-9 317q1 16 1 32.5t-1 33.5q-78 63 -98 113zM588 735q8 -6 14 -12q92 92 180 184t154 203 q12 23 22.5 49.5t14.5 54.5q1 8 1 16q0 69 -81 75h-22q-35 -1 -69 -5q-44 -6 -91 -14q-41 -8 -45 -59q-18 -137 -43 -279q-6 -55 -15.5 -107.5t-19.5 -105.5z" />
<glyph unicode="S" horiz-adv-x="1290" d="M63 1030q18 104 89 180q111 141 266 226.5t358 115.5q48 9 97 9q7 -1 15 -1q56 -2 116 -18q76 -23 137 -67.5t99 -102.5t48 -120q3 -17 2 -34q0 -44 -18 -85q-14 -35 -40 -63t-54 -52q-23 -18 -51.5 -16t-57.5 18q-50 35 -50 87q0 6 1 11q4 29 8 53.5t10 63.5 q-43 0 -75.5 3t-55.5 -3q-174 -35 -300 -117t-224 -198q-2 -4 2 -23q57 -4 112.5 -5t114.5 -9q72 -10 143.5 -18.5t141.5 -28.5q166 -49 253 -159q76 -97 76 -217q0 -17 -1 -34q0 -51 -19 -96q-78 -212 -246 -320q-162 -105 -421 -104h-19q-41 0 -83 7t-81 24 q-59 16 -105 52t-81 85q-32 48 -32 89q0 35 24 64q26 33 64 36q7 1 14 1q33 0 75 -12q50 -14 104 -13q19 0 37 1q74 6 146 28.5t133.5 59.5t102.5 77.5t55 84.5q5 17 5 34q0 25 -13 47q-59 29 -114.5 34t-108.5 16q-72 10 -139.5 20t-135.5 21q-16 2 -31.5 7t-31.5 13 q-154 43 -222 134q-48 63 -48 142q0 35 9 72z" />
<glyph unicode="T" horiz-adv-x="1548" d="M61 1376q14 47 76 60q143 23 285 37q205 20 405.5 38.5t405.5 36.5q20 2 38.5 4t35.5 7q8 1 17 1q42 0 80 -18q46 -20 77 -65q26 -37 26 -68q-1 -4 -1 -8q-4 -35 -42 -55q-51 -27 -102 -46q-68 -16 -132.5 -31.5t-129.5 -31.5q-41 -6 -49 -39q-27 -178 -57.5 -351 t-57.5 -349q-18 -113 -30.5 -228.5t-24.5 -232.5q-4 -12 -5.5 -25.5t-5.5 -23.5q-8 -42 -42 -56q-16 -7 -37 -6q-22 0 -48 8q-45 10 -83.5 46t-53.5 83q-10 45 -22.5 90.5t-18.5 86.5q-35 236 -43 459q-1 31 -1 62q0 189 42 365q4 10 4 21v27q-72 -4 -140.5 -6.5 t-135.5 -6.5h-11q-41 1 -79 13q-43 14 -84 53q-61 61 -61 117q0 16 5 32z" />
<glyph unicode="U" horiz-adv-x="1390" d="M74 978q12 204 104 386q16 29 32.5 54.5t37.5 47.5q37 39 92 42h10q50 0 96 -27q53 -29 79 -78q20 -37 20 -79q0 -13 -2 -26q-10 -68 -22.5 -134t-22.5 -134q-10 -112 -12 -222v-12q0 -105 24 -214q25 -104 59.5 -151.5t75.5 -53.5q7 -1 14 -1q34 0 70 24q43 28 84 77 q90 104 135 221t69.5 239t42 246t54.5 247q6 16 9 34.5t12 32.5q14 29 42.5 40t61.5 1q41 -10 68.5 -31.5t42.5 -58.5q6 -18 11 -37.5t7 -38.5q1 -47 1 -94q1 -206 -21 -406q-26 -246 -123 -469q-33 -72 -73 -137t-95 -119q-55 -57 -125 -95t-162 -48q-25 -2 -50 -2 q-107 0 -201 42q-116 52 -216 163q-70 78 -113 163t-67 175q-51 191 -51 365q0 34 2 68z" />
<glyph unicode="V" horiz-adv-x="958" d="M62 822q-4 76 -5 151q0 139 15 276q4 47 17 91t26 92q6 18 15 33.5t20 31.5q24 33 60 41q13 3 27 3q26 0 56 -9q49 -16 81 -51t42 -78q22 -82 22 -157v-7q-2 -117 -5 -229.5t-5 -229.5q-1 -16 -1 -31q0 -32 3 -64q4 -48 8 -101q7 0 15 -4q10 14 18 29.5t18 31.5 q111 201 221.5 401.5t225.5 401.5q14 29 32.5 55.5t39.5 48.5q30 35 66 39q5 1 9 1q32 0 62 -25q44 -36 44 -82q0 -25 -13 -54q-47 -102 -96.5 -200.5t-90.5 -200.5q-72 -172 -138.5 -343t-131.5 -343q-16 -43 -32.5 -86t-35.5 -84q-10 -27 -21.5 -50.5t-25.5 -45.5 q-37 -52 -89 -72q-32 -12 -66 -13q-21 0 -41 5q-56 12 -108 55t-91 115q-29 51 -50.5 107.5t-33.5 109.5q-51 225 -63 441z" />
<glyph unicode="W" horiz-adv-x="1761" d="M68 502q-8 90 -8 177q0 102 11 200q21 182 87 358q23 59 55.5 112.5t65.5 106.5q12 20 34.5 35.5t44.5 32.5q35 21 74 21q6 -1 14 -1q48 -4 95 -31q43 -23 69 -59q22 -31 22 -65q0 -5 -1 -11q0 -25 -4 -48t-11 -46q-23 -84 -46 -165t-46 -165q-37 -137 -54 -275 q-9 -71 -8 -145q0 -69 7 -141q0 -16 4 -37.5t8 -52.5q16 23 26.5 33t14.5 20q59 131 118.5 261.5t117.5 259.5q22 53 62 79q29 19 68 20q15 0 30 -3q53 -10 93 -48t50 -96q4 -33 3 -63v-9q0 -27 5 -57q16 -78 33.5 -156.5t36.5 -156.5q18 -68 43.5 -83t51.5 2.5t48.5 57 t36.5 80.5q53 164 63 330q3 52 2 104q0 116 -14 236q-8 66 -26.5 131.5t-34.5 130.5q0 10 -3 17.5t-8 17.5q-4 18 -4 33q0 26 10 46q16 32 60 42q16 4 32 4q60 0 113 -61q63 -66 96 -138.5t52 -150.5q50 -190 50 -374q0 -40 -2 -78q-13 -220 -95 -431q-18 -53 -49 -104.5 t-74 -94.5q-57 -54 -126 -80q-58 -21 -117 -22q-12 0 -24 1q-72 5 -142 41t-132 101q-33 39 -58.5 78t-58.5 84q-8 -16 -14 -27.5t-16 -23.5q-29 -53 -56.5 -108.5t-66.5 -100.5q-50 -63 -116 -89q-48 -19 -98 -19q-18 1 -36 3q-68 10 -131.5 52.5t-112.5 118.5 q-55 94 -79.5 191t-34.5 198z" />
<glyph unicode="X" horiz-adv-x="1353" d="M49 156q10 49 22.5 99t28.5 93q47 104 103.5 202.5t134.5 184.5q25 27 24.5 53.5t-20.5 59.5q-63 113 -111.5 226.5t-64.5 232.5q-4 29 -5 62.5t5 62.5q10 51 41 80.5t73 35.5q11 2 22 2q32 0 67 -13q47 -17 90 -60q59 -66 110 -146q35 -49 62.5 -101.5t58.5 -101.5 q49 45 102.5 100.5t106.5 108t107.5 96.5t105.5 68q42 21 77 21q17 0 31 -4q48 -14 70 -53q16 -28 15 -62q1 -12 -1 -25q-8 -49 -53 -90q-39 -35 -85 -79t-92 -92t-88 -96t-71.5 -90t-43 -75t-3.5 -51q66 -113 129.5 -226.5t130.5 -226.5q29 -45 60 -89t63 -85 q35 -45 41 -87q1 -8 1 -15q0 -33 -21 -60q-25 -35 -70 -42q-9 -1 -18 -1q-38 0 -84 23q-39 20 -78 47t-72 59q-82 78 -156.5 158t-152.5 160q-16 16 -29.5 31.5t-29.5 33.5q-10 -10 -18.5 -20t-16.5 -21q-45 -72 -84 -144.5t-82 -143.5q-16 -29 -36.5 -59.5t-43.5 -61.5 q-29 -37 -74 -45q-11 -2 -23 -2q-34 0 -71 18q-45 23 -69 63q-18 30 -17 64q0 11 2 23z" />
<glyph unicode="Y" horiz-adv-x="1271" d="M66 1151q24 160 112 301q23 35 53.5 60.5t73.5 37.5q23 6 47 6q22 0 44 -5q46 -11 83 -38.5t60.5 -67.5t23.5 -85q-2 -23 -7 -45.5t-9 -44.5q-18 -78 -40 -153t-36 -154q-19 -115 -19 -181v-6q1 -67 17 -89.5t45 -8.5t63.5 52t73.5 93.5t74 115.5t64.5 118.5t46.5 103.5 q18 41 26 84t19 90q16 76 56 118t89 57q28 8 58 8q21 0 42 -4q52 -11 93 -40.5t65 -75.5q20 -37 20 -82q0 -11 -1 -22q-8 -37 -15.5 -73.5t-13.5 -71.5q-49 -205 -87 -408.5t-63 -414.5q-4 -57 -17 -112.5t-32 -109.5q-14 -41 -36.5 -79.5t-51.5 -67.5q-37 -41 -88 -59.5 t-109.5 -18.5t-122 20.5t-120.5 57.5q-25 16 -48.5 37.5t-39.5 46.5q-24 36 -24 66q0 22 13 40q24 32 71 32q16 0 34 -3q16 -4 31.5 -9t33.5 -9q34 -7 57 -7q17 0 29 4q27 9 44 54q16 45 26 90t21 92q6 37 8 75t6 79q-4 4 -7 4t-7 2q-10 -10 -21.5 -23.5t-28.5 -23.5 q-37 -23 -70.5 -48.5t-74.5 -43.5q-53 -22 -109 -22q-46 0 -95 16q-105 34 -191 133q-53 63 -84 130.5t-45 139.5q-21 107 -21 207q0 69 11 135z" />
<glyph unicode="Z" horiz-adv-x="1177" d="M55 178q0 53 17.5 97t46.5 85q66 92 126 171t120.5 156t123 158t129.5 179q31 43 51.5 81t23.5 67.5t-15 45.5q-16 15 -56 15h-10q-72 -6 -146.5 -14.5t-150.5 -14.5q-23 -2 -48 -1t-50 5q-43 10 -78 34t-57 65q-17 35 -17 63q0 42 39 68q41 23 85 44t94 36q86 23 177 33 q48 5 98 5q45 0 91 -4q47 -2 93 -10t92 -24q115 -39 181 -123t70 -187q0 -86 -23.5 -161.5t-64.5 -139.5q-59 -86 -121.5 -167t-121.5 -162q-47 -66 -98.5 -127.5t-106.5 -131.5h61q88 1 173 3q28 1 57 0q58 0 118 -3q39 0 76 -12q39 -12 64.5 -36.5t29.5 -53.5q3 -12 3 -23 q0 -48 -60 -61q-68 -16 -137.5 -30.5t-134.5 -32.5q-92 -23 -176 -48.5t-174 -48.5q-35 -10 -71 -17t-77 -7h-10q-44 1 -84 17q-45 18 -79 49.5t-53.5 73.5t-19.5 89z" />
<glyph unicode="[" horiz-adv-x="774" d="M39 -127q0 10 3 19.5t7 19.5q160 561 123 1175q-6 102 -14 204t-17 204q-4 66 33 106.5t117 45.5q39 2 80 -1.5t82 -7.5q31 -4 68.5 -13t71.5 -22.5t59.5 -32t33.5 -38.5q16 -41 -3 -76t-69 -53q-4 0 -18 -3t-29.5 -6t-30 -6.5t-16.5 -3.5q-35 -2 -42 -19t-5 -42 q8 -170 15.5 -341t0.5 -339q-6 -176 -24.5 -349t-34.5 -349q12 -4 27.5 -4t29.5 -2q25 -4 48.5 -8.5t46.5 -12.5q49 -14 79.5 -44t34.5 -60q10 -33 -8 -58.5t-63 -31.5q-84 -16 -167 -31t-167 -23q-59 -6 -108.5 7.5t-84.5 41t-51 67.5t-8 87z" />
<glyph unicode="\" horiz-adv-x="770" d="M67 1516.5q-1 35.5 7 63.5t26.5 46.5t55.5 18.5t69.5 -20.5t53.5 -55.5q31 -59 58.5 -116.5t49.5 -119.5q88 -221 151.5 -434t110.5 -436q18 -82 32.5 -163t29.5 -163q4 -20 6 -39.5t2 -40.5q-6 -61 -66 -67q-29 -4 -60.5 11t-53.5 46q-16 25 -29.5 49.5t-24.5 50.5 q-68 162 -131 321t-117.5 319.5t-97 324.5t-67.5 336q-4 33 -5 68.5z" />
<glyph unicode="]" horiz-adv-x="774" d="M59 1487q-10 33 8.5 58.5t63.5 31.5q84 16 167 30.5t167 22.5q57 6 107.5 -7t85 -41t51 -67.5t8.5 -87.5q0 -10 -3 -19t-7 -19q-160 -561 -123 -1176q6 -102 14 -203.5t16 -204.5q4 -66 -32.5 -106.5t-116.5 -44.5q-39 -2 -80 1t-82 7q-31 4 -68.5 13.5t-71.5 22.5 t-59.5 30.5t-33.5 40.5q-16 41 3 75.5t68 53.5q4 0 18.5 3t30 6t28.5 6t18 3q35 2 42 19.5t5 41.5q-8 170 -15.5 341t-1.5 339q6 176 25 349.5t35 349.5q-12 4 -27.5 4t-30.5 2q-25 4 -48 8t-46 12q-49 14 -80 44t-35 61z" />
<glyph unicode="^" horiz-adv-x="712" d="M68 940q2 25 12 43q41 119 95 229.5t118 214.5q16 23 32.5 45.5t34.5 43.5q55 63 150 20q51 -23 76.5 -59.5t36.5 -83.5q4 -23 5 -45.5t1 -44.5q0 -111 1 -218.5t3 -218.5q2 -76 -62 -88q-31 -4 -63.5 12.5t-58.5 51.5q-12 18 -21.5 38.5t-19.5 41.5q-10 23 -14.5 45 t-10.5 45q-4 2 -7 3t-7 3q-27 -35 -50.5 -73t-50.5 -75q-4 -10 -10 -19t-16 -20q-20 -20 -50 -20t-61 18t-49.5 48t-13.5 63z" />
<glyph unicode="_" horiz-adv-x="800" d="M53 152q-6 43 15.5 70.5t72.5 31.5q123 6 237.5 3t229.5 -3h18.5t20.5 -4q63 -6 96 -72q14 -29 11.5 -55.5t-25.5 -38.5q-16 -12 -36.5 -20.5t-41.5 -10.5q-106 -16 -213.5 -21t-220.5 5q-14 0 -22 2q-55 8 -93.5 37.5t-48.5 75.5z" />
<glyph unicode="`" horiz-adv-x="581" d="M82 1489q8 27 25.5 38t39 12t43 -6t39.5 -17q53 -33 104.5 -66t102.5 -66q16 -10 28.5 -21t27.5 -22q43 -43 26 -92q-10 -23 -32.5 -33t-51.5 1q-78 29 -152.5 63.5t-142.5 91.5q-29 23 -46 52.5t-11 64.5z" />
<glyph unicode="a" horiz-adv-x="1114" d="M82 633q100 272 379 385q46 18 97 17q57 0 120 -21q45 -16 84 -44t69 -73q14 4 25.5 8t22.5 8q29 8 58.5 1t54 -24.5t41 -44t18.5 -57.5q2 -27 -4 -59q-16 -102 -31 -204.5t-31 -205.5q-6 -66 -6 -135q-4 -47 -23.5 -69.5t-60.5 -22.5q-39 0 -75 21.5t-58 64.5 q-16 31 -27.5 65.5t-25.5 71.5q-39 -25 -74 -47t-72 -45q-80 -44 -179 -44q-12 0 -24 1q-92 8 -165.5 65.5t-104.5 149.5q-27 70 -27 135q0 53 19 103zM396 405.5q7 -16.5 32 -15.5t72 28q41 25 85 65.5t78.5 86.5t58 91t23.5 78q-15 23 -43 23q-9 0 -19 -2q-42 -10 -90 -45 t-95 -89.5t-78 -111.5q-16 -33 -23.5 -62.5t-0.5 -46z" />
<glyph unicode="b" horiz-adv-x="1095" d="M72 391q6 190 11 377.5t15 374.5q6 92 21.5 177t36.5 171q10 43 33.5 80t46.5 71q10 16 29.5 27.5t39.5 16.5q13 2 25 2q40 0 76 -24q48 -32 65 -89q6 -25 7 -48.5t1 -45.5q-2 -127 -6 -251t-8 -251v-41.5t-2 -48.5q57 8 103 15t96 7q115 0 210 -70.5t136 -185.5 q29 -79 29 -152q1 -31 -5 -60q-18 -99 -78 -167q-60 -69 -158 -101q-59 -19 -126 -19q-44 0 -92 8q-8 2 -16.5 3t-16.5 5q-55 16 -103 17h-3q-46 0 -85 -27q-28 -18 -60 -18h-8q-38 2 -76 22t-71 54t-49 75q-10 23 -15 48.5t-3 47.5zM471 451q22 -3 43 -2q40 0 74 9 q54 15 89.5 46t49.5 75q7 22 7 45.5t-7 47.5q-8 1 -17 1q-39 1 -78 -15q-48 -18 -86 -52q-38 -32 -60 -74q-17 -32 -16 -64q0 -8 1 -17z" />
<glyph unicode="c" horiz-adv-x="1081" d="M64 566q14 98 63 188q43 82 112.5 143t159.5 107q63 33 138 38q12 1 24 1q64 0 135 -23q70 -23 124 -59.5t88 -85t44 -101.5q4 -19 4 -38q0 -34 -12 -68q-10 -41 -33 -76q-21 -41 -75 -41q-16 0 -35 4q-35 10 -64.5 35.5t-42.5 62.5q-2 10 -4 20.5t-6 20.5q-10 42 -28 54 q-7 5 -20 5q-18 0 -46 -10q-12 0 -27 -6q-49 -23 -90 -68.5t-67.5 -104t-33.5 -120.5q-2 -18 -2 -35q0 -43 13 -83q10 -46 42 -58q19 -7 41 -6q16 0 33 3q42 9 91 35t95 54.5t84 55t60 41.5q10 6 17.5 12t17.5 8q22 10 44 10q35 0 69 -26q25 -18 37 -44t4 -51 q-6 -14 -13.5 -27.5t-17.5 -23.5q-59 -55 -140 -114.5t-173 -97.5t-190 -43h-19q-89 0 -174 44q-86 43 -136 110.5t-75 145.5q-20 77 -20 147q0 34 4 65z" />
<glyph unicode="d" horiz-adv-x="1110" d="M70 588q20 250 235 387q91 57 213 57q32 0 66 -4q14 -4 26.5 -4t26.5 -2q12 70 22.5 136.5t20.5 131.5q12 72 34.5 139.5t61.5 122.5q16 27 38 50.5t46 42.5q37 28 85 28q5 -1 11 -1q56 -4 103 -36q49 -29 77 -77q21 -36 22 -74q0 -13 -3 -27q-6 -59 -17.5 -118.5 t-27.5 -118.5q-60 -217 -80 -447q-17 -193 -17 -393q0 -39 1 -78q1 -22 1 -44.5t-1 -43.5q-2 -43 -6 -88q0 -10 -1 -20.5t-3 -20.5q-21 -76 -99 -76h-12q-45 4 -85 30t-63 71q-16 25 -26.5 53t-26.5 65q-23 -23 -40 -39t-36 -32q-54 -44 -118 -54q-23 -4 -46 -3l-82 11 q-64 18 -125 65.5t-104 121.5q-74 122 -74 242q0 24 3 47zM360 499.5q0 -73.5 46 -145.5q18 -16 37 -16q17 0 35 13q38 28 71 89.5t52 145.5q17 76 17 149v15q-14 2 -28 2q-58 0 -106 -28q-60 -34 -92 -92.5t-32 -132z" />
<glyph unicode="e" horiz-adv-x="1050" d="M60 622q16 108 71 198.5t144.5 156t205.5 94.5q49 12 100 11h22q63 -3 122 -22.5t113.5 -56t97.5 -85.5q79 -95 79 -204q0 -21 -3 -42q-8 -61 -38 -115.5t-76 -96.5t-104.5 -70t-125.5 -36q-27 -4 -53 -4q-37 0 -73 8q-60 14 -120 48q-10 4 -20.5 11t-20.5 13 q6 -74 54 -106q49 -31 111 -35q11 -1 22 -1q52 0 104 16q64 18 108 46q32 21 64 21h6q35 -2 63 -29q39 -31 39 -69q0 -27 -20 -58q-10 -14 -19.5 -25.5t-23.5 -21.5q-96 -72 -208 -100q-63 -16 -134 -17q-54 0 -113 10q-135 25 -232.5 117t-129.5 223q-18 72 -18 142 q0 40 6 79zM492 738q-5 -13 -5 -26q0 -22 14 -42q22 -32 85 -35q25 0 49 11t43.5 28.5t31 40t11.5 47.5q0 31 -13.5 44t-48.5 17q-12 1 -24 1q-51 0 -87 -22q-44 -28 -56 -64z" />
<glyph unicode="f" horiz-adv-x="925" d="M57 449q-4 15 -4 28q0 43 43 62q20 14 54 20q8 2 22 5t30.5 6t32 6.5t21.5 5.5q-8 47 -9 116v18q0 62 6 131q7 79 26.5 158.5t54.5 147.5q29 57 66.5 103.5t83.5 71.5q44 23 97 23h5q55 -1 119 -34q72 -39 113.5 -95.5t58.5 -127.5q9 -52 9 -100q0 -24 -2 -46 q-7 -69 -42 -131q-33 -41 -68 -57q-24 -10 -44 -10q-10 0 -20 2q-28 8 -46.5 36.5t-18.5 77.5q0 10 1 32t2 45.5t1 44t-2 30.5q-25 45 -44 22.5t-30.5 -85t-13.5 -150.5q-1 -22 -1 -44q0 -65 5 -130q35 0 65.5 -1t59.5 3q18 4 34 4q28 0 53 -11q40 -16 61 -61q8 -21 8 -38 q0 -53 -74 -78q-41 -14 -85 -24.5t-85 -23.5q-4 -2 -10 -2t-17 -4q1 -23 1 -47v-24q-1 -35 -1 -70q0 -55 -5 -114.5t-18 -116t-37 -108.5t-60 -93q-31 -29 -77 -30h-3q-45 0 -86 26q-35 25 -54.5 52.5t-27.5 57.5q-6 25 -6 51v13q2 33 8 67q6 41 14 85t13.5 84t7.5 73t-2 51 q-16 2 -50 2t-47 4q-35 12 -57.5 36t-28.5 55z" />
<glyph unicode="g" horiz-adv-x="1148" d="M-21 -14q11 32 44 49q20 8 40 8q57 0 111 -61q47 -57 100 -72q32 -8 64 -8q23 0 45 4q29 4 52.5 15t45.5 28q104 76 159.5 183.5t78.5 240.5q0 4 -2 7t-6 11q-20 -12 -40 -23.5t-40 -21.5q-53 -33 -112.5 -52.5t-131.5 -19.5q-68 0 -128 24t-106.5 67t-75 101t-30.5 124 v19q0 79 29 147q125 270 440 354q38 11 78 11q54 0 111 -19q27 -8 54 -18.5t50 -30.5q53 -43 99 -89t110 -77q29 -16 44 -47t21 -62q4 -12 5.5 -23.5t1.5 -21.5q-18 -147 -33 -295.5t-39 -296.5q-16 -109 -61.5 -202t-114.5 -168q-74 -82 -169 -127t-218 -52h-18 q-88 0 -171 35q-90 39 -176 113q-41 37 -65.5 79t-40.5 89q-9 27 -9 49q0 15 4 29zM332 532q2 -31 34.5 -30.5t80 22t101.5 57t99 77.5t71 82q22 33 22 59q0 6 -1 12q-33 8 -61 8q-8 0 -16 -1q-33 -3 -62 -17q-84 -35 -148.5 -90.5t-105.5 -135.5q-6 -10 -8 -20t-6 -23z" />
<glyph unicode="h" horiz-adv-x="1153" d="M75 708q3 114 19.5 230.5t46 221t73.5 193.5t105 148q35 33 89 45q20 5 40 5q22 0 45 -6q44 -11 78.5 -36.5t54.5 -62.5q17 -31 18 -63q0 -6 -1 -13q-6 -55 -30.5 -129t-52.5 -160t-50.5 -179t-24.5 -189q75 47 169 65q49 10 97 10q42 0 82 -8q85 -16 152.5 -72.5 t93.5 -156.5q9 -39 13 -75q2 -17 2 -33q0 -19 -2 -37q-4 -53 -9.5 -104.5t-11.5 -102.5q-4 -45 -33.5 -80t-68.5 -49q-19 -7 -38 -6q-20 0 -41 8q-40 14 -65 67q-15 40 -15 90v7q1 54 1 105.5t-10 98.5t-47 80q-26 21 -57 21q-20 0 -42 -9q-61 -27 -95 -74.5t-55.5 -105 t-38.5 -116t-46 -103.5q-16 -25 -47 -38q-29 -12 -62 -12h-5q-36 1 -70.5 17.5t-59.5 49.5q-23 33 -41 70.5t-26 72.5q-17 89 -27 195q-7 81 -8 166q0 27 1 54z" />
<glyph unicode="i" horiz-adv-x="428" d="M71 475q-1 21 -1 42q0 109 22 214q18 84 62 120q38 32 78 32q6 0 11 -1q46 -5 84 -47t44 -110q0 -141 -12.5 -273.5t-30.5 -265.5q0 -31 -15 -63q-10 -29 -35.5 -39t-60.5 -6q-37 4 -62.5 24.5t-41.5 51.5q-16 33 -17 55q-20 135 -25 266zM100 1123q8 46 58 71 q30 15 65 16q17 0 36 -4q56 -12 93 -53q32 -34 32 -71q0 -8 -1 -16q-8 -46 -57 -71q-30 -15 -66 -15q-18 0 -36 4q-58 12 -93 52q-32 34 -32 71q-1 8 1 16z" />
<glyph unicode="j" horiz-adv-x="878" d="M-182 -117v10q0 31 24 58q31 29 72 30h5q39 0 83 -14q41 -10 83 -16t81 -21q36 -12 67.5 -12t58.5 12q54 25 92 82.5t62.5 138t35.5 165.5q9 74 9 146q0 10 -1 20q-1 82 -13 141q-10 -4 -26.5 -13.5t-34 -19.5t-33.5 -19.5t-27 -11.5q-31 -6 -62.5 -11t-66.5 -5 q-84 4 -125 75q-19 31 -19 58q0 29 21 55q10 10 23.5 21.5t26.5 21.5q76 47 149.5 91t149.5 89q10 10 24.5 15.5t28.5 9.5q29 8 57 8q12 0 24 -1q40 -5 81 -38q41 -29 54 -64q10 -28 10 -58q0 -9 -1 -19v-11q0 -32 10 -69q66 -211 66 -406v-11q-2 -201 -62 -392 q-23 -74 -59.5 -135.5t-95.5 -108.5q-70 -59 -158 -88q-69 -22 -150 -22q-22 0 -46 2q-55 4 -112.5 25.5t-111 54t-96.5 74.5t-70 87q-23 39 -28 76zM350 1323q21 45 78 55q14 3 28 3q39 0 78 -21q54 -29 78 -76q12 -26 12 -50q0 -22 -10 -42q-22 -41 -75 -49q-14 -3 -29 -3 q-38 0 -78 18q-55 26 -78 71q-14 27 -14 52q0 21 10 42z" />
<glyph unicode="k" horiz-adv-x="1050" d="M89 581v20q1 115 11 231q12 126 35 248t60 229q10 35 27.5 68.5t37.5 64.5q16 27 41 45t66 26q15 3 30 3q17 0 35 -4q32 -7 60 -22t46.5 -37.5t24.5 -51.5q6 -25 5 -48.5t-5 -45.5q-16 -117 -33.5 -233t-33.5 -232q0 -16 -2 -31.5t-5 -32.5q5 -2 17 -10q49 35 98 66.5 t98 66.5q29 16 54.5 32.5t54.5 33.5q59 35 102 35q12 0 22 -2q47 -12 63 -56q7 -20 8 -42q0 -28 -10 -58q-18 -56 -76 -96q-68 -47 -136.5 -92.5t-136.5 -92.5q-14 -12 -29.5 -23.5t-35.5 -25.5q129 -31 243 -59q45 -6 80 -21q84 -33 84 -88q-1 -29 -25 -47q-16 -12 -41 -12 q-11 0 -24 2q-86 10 -171 23.5t-171 27.5q-29 6 -58.5 14t-64.5 19q-4 -18 -10 -47q-6 -74 -13.5 -149t-13.5 -150q-4 -10 -3 -19.5t-1 -17.5q-18 -55 -94 -56h-7q-32 0 -60 16q-32 18 -48 48q-29 57 -50 147.5t-32.5 201t-12.5 234.5z" />
<glyph unicode="l" horiz-adv-x="561" d="M62 828q10 156 43.5 304t76.5 261q14 35 30.5 70.5t37.5 66.5q27 43 80 59q27 10 57 10q11 0 21 -1q41 -5 75.5 -23.5t58 -48t27.5 -66.5q4 -25 -1 -50.5t-9 -49.5q-25 -109 -49.5 -211t-45 -201.5t-33.5 -197t-15 -191.5q-1 -20 0 -39q0 -40 2 -78q4 -58 18 -104 q12 -46 36 -72q19 -22 49 -21q7 0 14 1q11 2 21 2q32 0 50 -20q22 -24 21 -55v-5q0 -20 -15.5 -41t-39 -37t-54.5 -24.5t-63 -4.5q-119 12 -192 64.5t-113 128.5q-61 118 -80 268q-12 97 -12 195q0 56 4 111z" />
<glyph unicode="m" horiz-adv-x="1654" d="M78 442q-1 21 -1 42q-1 118 19 228q22 130 66 253q16 51 47 92q18 23 42.5 33t52.5 8t55.5 -15.5t50.5 -33.5q20 -20 30.5 -41t16.5 -43.5t10 -45t14 -45.5q63 51 115 75q40 18 73 19q10 0 19 -2q39 -8 64.5 -47.5t40.5 -119.5q43 47 86 96t90 91t101 73t116 43 q16 2 32 2q36 0 72 -10q51 -14 95.5 -44t81 -75t59.5 -101q27 -68 37 -132t14 -128q2 -33 1 -66q0 -86 -10 -168q-16 -114 -57 -214q-17 -49 -47 -85q-28 -34 -77 -34h-5q-23 0 -50 8t-49.5 25.5t-38 47.5t-15.5 75q2 70 11 140.5t17.5 143t10.5 145.5v20q0 64 -11 130 q-12 69 -49 69h-3q-40 -3 -91 -50q-66 -61 -104.5 -126t-62 -128.5t-41 -125t-40.5 -116.5q-24 -51 -73 -51q-20 0 -45 8q-88 31 -111 113q-8 25 -10 58.5t-4 69.5t-3.5 68.5t-7.5 57.5q-10 68 -40 73q-3 1 -6 1q-27 0 -58 -35q-35 -39 -65.5 -111t-43.5 -158 q-6 -43 -13 -90t-20.5 -88t-34 -70.5t-52.5 -37.5q-16 -4 -31 -4q-40 1 -68 27q-40 36 -61 92.5t-30 118t-11 95.5z" />
<glyph unicode="n" horiz-adv-x="1153" d="M74 371q0 147 21.5 286.5t68.5 270.5q16 43 39 76q16 23 43.5 29.5t62.5 -5.5q74 -18 99 -86q6 -12 12 -48t16 -56q29 29 57.5 62.5t60.5 65t65.5 56.5t72.5 37q37 9 73 9q17 0 35 -2q54 -7 101 -32.5t84 -68.5t57 -101q18 -55 28.5 -110.5t10.5 -108.5q1 -24 1 -46 q0 -33 -2 -67q-3 -54 -6 -109q-2 -40 -2 -80v-27q1 -52 11 -103q4 -20 4 -37q0 -16 -3 -28q-7 -28 -37 -42q-24 -11 -49 -11q-11 0 -22 2q-36 7 -75 32q-47 33 -73.5 81t-41 102.5t-19.5 110.5t-5 105q-2 111 -18.5 166.5t-40 69.5t-54.5 -7.5t-62.5 -66.5t-62 -107.5 t-54.5 -129t-39 -131t-17 -115.5q0 -14 -6.5 -30.5t-14.5 -31.5q-18 -49 -60 -69q-24 -12 -53 -12q-21 0 -44 6q-53 16 -93.5 57t-54.5 98q-8 37 -13 74q-3 21 -3 40q0 16 2 32z" />
<glyph unicode="o" horiz-adv-x="952" d="M64 556q2 48 9 95t21 82q41 106 118 178t183 113q54 23 111 23q21 1 43 -3q80 -12 147.5 -57t116.5 -118.5t66 -163.5q15 -84 15 -156q0 -97 -26 -174q-46 -135 -188 -234q-88 -61 -184 -73q-24 -3 -47 -2q-69 0 -132 25q-84 34 -148 108.5t-91 185.5q-8 33 -12 78 q-2 32 -2 64v29zM386 505q0 -9 -1 -17q-1 -59 15 -104q18 -52 53 -74q13 -8 29 -7q26 0 59 21q47 33 85 97t54 132q7 34 7 63q-1 48 -19 82q-30 54 -78 67q-14 4 -29 4q-35 -1 -73 -23q-54 -32 -80 -113q-20 -59 -22 -128z" />
<glyph unicode="p" horiz-adv-x="1220" d="M74 270q6 258 65 508q8 37 20.5 72t28.5 65q8 18 21.5 35t30.5 29q35 29 77 29q21 0 43 -8q68 -21 107 -91q4 -10 10 -22.5t12 -28.5q29 25 53.5 49.5t51.5 40.5t54.5 30.5t58.5 22.5q49 16 96 16q54 0 107 -21q98 -40 163 -140q27 -41 44.5 -88t27.5 -90q10 -56 10 -109 q0 -52 -9 -100q-20 -98 -73 -184q-90 -141 -251 -171q-43 -8 -90 -8q-124 0 -269 58q-4 4 -11.5 6t-19.5 6q-2 -20 -5 -39.5t-5 -40.5q-6 -104 -11 -210.5t-12 -213.5q-2 -16 -3 -33.5t-5 -33.5q-10 -35 -37 -51q-21 -12 -51 -12q-8 0 -16 1q-39 4 -71 26.5t-48 59.5 q-12 25 -18.5 50.5t-14.5 52.5q-61 258 -61 498v40zM483 383q39 -16 84 -21q16 -1 31 -1q29 0 57 5q43 9 81 29.5t67 50.5q33 37 52 88.5t23 104.5q2 17 2 34q0 35 -6 69q-10 51 -36 85q-53 -2 -109.5 -40.5t-106 -100t-87.5 -140.5t-52 -163z" />
<glyph unicode="q" horiz-adv-x="1177" d="M66 514q6 51 24 104q33 92 89.5 167t133.5 137q4 4 7.5 5t7.5 5q80 53 169 61q10 1 21 1q81 0 176 -54q25 33 47.5 61.5t51.5 55.5q41 41 118 45h10q44 0 85 -16q45 -17 78.5 -46.5t51.5 -67.5q13 -28 13 -58q0 -11 -2 -21q-16 -117 -41 -229.5t-41 -227.5 q-18 -115 -34.5 -231.5t-33.5 -233.5q-12 -78 -22 -158.5t-21 -158.5q-2 -8 -3 -14.5t-1 -14.5q-18 -62 -71 -62q-15 0 -33 5q-39 4 -68.5 32.5t-34.5 67.5q-10 78 -14 155t-12 154q0 29 3 57.5t7 63.5q-41 -10 -69.5 -19t-57.5 -13q-37 -4 -75 -8q-20 -3 -40 -3 q-17 0 -34 2q-74 6 -139.5 37t-117 77t-84 107.5t-40.5 129.5q-6 34 -6 67q0 20 2 39zM432 418q-1 -9 -1 -18q0 -49 19 -80q22 -34 69 -34h3q49 1 121 64q35 31 63.5 75t46 95t23.5 106q2 21 2 42q0 34 -6 67q-106 -14 -182 -66.5t-121 -129.5q-33 -59 -37 -121z" />
<glyph unicode="r" horiz-adv-x="978" d="M61 309q-15 106 -15 209q0 212 65 408q18 51 47 94q20 31 53 44q27 11 56 11q7 0 13 -1q36 -3 71.5 -22.5t60.5 -58.5l7 -7t11 -7q4 4 10 7t15 7q46 27 101 27q8 0 18 -1q66 -5 131 -37t120.5 -88t83.5 -128q15 -49 21 -96l2 -24q0 -35 -12 -68q-12 -36 -43 -56 q-26 -16 -65 -17q-8 0 -17 1q-94 16 -140 96q-18 31 -32.5 64.5t-32.5 72.5q-17 19 -33 19q-15 0 -29 -14q-30 -30 -56 -92t-43 -144t-19 -154q-1 -31 -1 -61v-29t1 -28q0 -28 -2 -56q-10 -74 -76 -98q-27 -10 -55 -10h-10q-34 2 -66.5 17t-61 41t-45.5 60q-12 29 -21.5 59 t-11.5 60z" />
<glyph unicode="s" horiz-adv-x="765" d="M61 326q-6 35 3.5 60.5t29.5 40.5t50 17h8q26 0 57 -12q31 -10 59.5 -26.5t59.5 -26.5q9 -1 17 -1q31 0 49 18q10 10 11 24q0 18 -18 41q-10 20 -28.5 36.5t-39.5 32.5q-37 25 -73.5 49.5t-65.5 53.5q-58 51 -78 111q-14 41 -14 81q0 17 3 34q9 56 44 107.5t91 85.5 t128 48q34 7 71 6q40 0 83 -8q57 -10 108.5 -39t88.5 -82q29 -45 33 -90q1 -8 1 -15q0 -35 -18 -59q-25 -31 -61 -35q-5 -1 -9 -1q-33 0 -84 24q-37 17 -68 17h-3q-32 -1 -54 -13t-30.5 -31.5t0.5 -40.5q16 -41 41.5 -69.5t54.5 -53t58.5 -46t56.5 -46.5q57 -54 79 -120 q16 -47 17 -93q0 -17 -3 -35q-9 -62 -47 -115t-100 -79q-55 -23 -117 -23h-10q-68 2 -132 23.5t-118.5 59.5t-85.5 83q-16 23 -28 50.5t-17 56.5z" />
<glyph unicode="t" horiz-adv-x="937" d="M22 838q13 32 56 41q29 4 59.5 7t63.5 3q10 47 25.5 106.5t31.5 119t33.5 115.5t34.5 97q10 37 29.5 66.5t47.5 56.5q29 29 74 29t88 -27q47 -29 69.5 -66.5t22.5 -78.5q-2 -41 -5 -81t-13 -77q-10 -57 -22.5 -112.5t-22.5 -118.5q35 -4 63.5 -7.5t57.5 -9.5 q47 -10 74.5 -36.5t35.5 -59.5q3 -11 3 -21q0 -44 -68 -49q-43 -4 -84 -6t-82 -8q-10 0 -23.5 -7t-13.5 -16q0 -72 -5 -142.5t-7 -139.5q0 -74 9 -100.5t27.5 -20.5t44 39t58.5 78q4 10 10 21t15 22q21 18 49 18q25 0 57 -14q35 -16 55.5 -45t24.5 -62v-26.5t-4 -26.5 q-14 -66 -39 -121t-66 -102q-35 -40 -81 -62q-39 -19 -92 -19q-9 0 -19 1q-98 6 -187.5 66.5t-140.5 154.5q-43 80 -61.5 157t-22.5 152q-2 39 -3 79t-1 87h-10q-45 0 -83 20.5t-60 55.5q-9 20 -9 39q0 16 6 31z" />
<glyph unicode="u" horiz-adv-x="978" d="M66 524q-3 31 -3 61q0 178 91 320q33 59 98 74q14 2 28 2q22 0 42 -5q34 -9 62 -31.5t45 -53.5t17 -68q0 -29 -6 -51t-10 -45q-8 -53 -15 -105.5t-12 -107.5q-3 -19 -4 -35q-1 -34 15 -52q22 -26 51 5q35 37 67.5 87t61.5 105.5t55.5 111t48.5 100.5q4 10 6.5 17t6.5 13 q20 40 56 50q14 4 28 4q23 0 49 -11q44 -18 66 -58q21 -37 20 -81v-8q-6 -98 -9 -196.5t-8 -198.5q1 -41 3 -81q3 -41 2 -85q0 -76 -70 -76q-35 2 -65.5 23.5t-47.5 62.5q-10 29 -13 78t-15 88q-23 -25 -47.5 -55.5t-50 -60.5t-53.5 -54.5t-56 -36.5q-44 -22 -90 -22h-6 q-50 2 -97 21t-91 56t-79 90q-61 102 -71 209z" />
<glyph unicode="v" horiz-adv-x="831" d="M84 742q12 176 61 341q18 63 56 115q25 35 67 40q8 1 16 1q34 0 68 -18q46 -23 70 -61q23 -35 22 -81v-8q0 -41 -5 -82t-7 -84q-6 -80 -9 -159.5t-7 -161.5q0 -8 1 -15.5t1 -11.5q4 -4 12 -4q43 88 85 176t89 176q25 47 50.5 90t54.5 88q8 10 15 20.5t15 20.5 q28 27 58 27q28 0 59 -23q43 -36 43 -78q0 -16 -6 -32q-92 -219 -181 -435t-184 -438q-20 -49 -57 -90q-25 -29 -59 -38q-18 -5 -36 -5q-17 0 -35 4q-36 8 -72 34t-62 67q-45 61 -67.5 127.5t-33.5 132.5q-24 141 -24 274q-1 46 2 91z" />
<glyph unicode="w" horiz-adv-x="1347" d="M64 728q14 150 79 284q18 41 60 71q27 22 66 22q9 0 18 -1q51 -6 98 -41q49 -31 67 -71q11 -23 11 -46q0 -17 -6 -35q-33 -109 -47 -223q-9 -74 -10 -151q0 -42 3 -86q4 -2 10.5 -4.5t12.5 -4.5q33 59 66.5 119t64.5 123q27 50 63 64q13 5 29 5q28 0 66 -14 q123 -47 137 -178q4 -35 11 -72.5t18 -74.5q4 -18 14 -39t23 -49q10 12 19 17t11 15q16 37 31.5 76t26.5 80q27 94 48 189.5t46 193.5q4 16 10 30.5t16 26.5q13 16 40 16q20 0 48 -9q29 -14 47.5 -32t22.5 -40q8 -27 4 -60q-10 -113 -22.5 -226.5t-26.5 -223.5 q-18 -92 -49 -172q-12 -29 -30.5 -54.5t-47.5 -43.5q-31 -23 -74 -29q-16 -2 -33 -2q-28 0 -58 6q-48 10 -97 35.5t-94 66.5q-23 20 -43.5 46t-48.5 55q-10 -14 -19.5 -24.5t-13.5 -24.5q-25 -33 -47.5 -67t-51.5 -65q-35 -35 -85 -43q-16 -3 -32 -3q-35 0 -70 12 q-52 18 -102 57t-83 96q-29 47 -48.5 93.5t-29.5 89.5q-22 118 -22 227q0 48 4 93z" />
<glyph unicode="x" horiz-adv-x="911" d="M35 229q4 23 12 44.5t19 41.5q39 61 78.5 124t80.5 122q8 14 19.5 27.5t21.5 29.5q-37 63 -69.5 124t-67.5 118q-12 23 -21.5 45.5t-17.5 44.5q-8 21 -8 39q0 15 5 28q11 30 42 42q28 12 55 12q45 0 88 -33q25 -23 49.5 -46t47.5 -50t41 -54.5t41 -58.5q51 41 99 78 t95 72q23 18 50.5 36.5t54.5 35.5q35 19 69 19l17 -2q43 -6 75 -34q35 -32 40 -68q1 -6 1 -11q0 -31 -24 -60q-55 -72 -115.5 -137.5t-122.5 -130.5q-14 -18 -31.5 -36t-33.5 -36q41 -70 79.5 -133.5t79.5 -128.5q16 -23 28.5 -46.5t25.5 -45.5q20 -33 20 -61q0 -7 -2 -14 q-6 -34 -41 -50q-20 -9 -41 -9q-16 0 -33 5q-39 12 -75 49q-25 29 -47.5 54.5t-45.5 53.5q-29 33 -56.5 67t-59.5 73q-16 -16 -28.5 -29.5t-22.5 -26.5q-29 -35 -51.5 -70.5t-51.5 -70.5q-16 -16 -30.5 -32.5t-34.5 -26.5q-28 -18 -61 -18.5t-73 18.5q-35 18 -54 50 q-16 26 -16 54q0 6 1 12z" />
<glyph unicode="y" horiz-adv-x="1064" d="M66 395q-11 71 -11 138q0 68 11 133q24 127 73 243q18 49 66 80q30 18 66 18q1 0 1 -1q37 0 70 -18.5t59.5 -50.5t36.5 -73q6 -29 5 -58.5t-1 -57.5q-6 -72 -11 -142.5t-13 -156.5q-2 -19 -2 -33q0 -41 13 -48q17 -8 47 26t68 97.5t75.5 133t69.5 134t48 103.5 q12 25 31.5 46.5t43.5 37t49.5 20.5t49.5 -5q47 -18 75 -57.5t32 -92.5q4 -8 2 -13t-2 -10q-6 -145 -20.5 -293.5t-39 -293t-61.5 -280.5t-88 -255q-16 -35 -35.5 -62.5t-42.5 -52.5q-53 -53 -113 -65q-28 -6 -57 -6q-31 0 -63 7q-60 13 -115 47t-98 75q-27 27 -45.5 57.5 t-32.5 59.5q-11 26 -11 46q0 39 40 60q27 16 60.5 10t68.5 -32q18 -12 34.5 -24.5t38.5 -23.5q37 -18 58.5 -14t40.5 33q23 39 40 99.5t31.5 126t25.5 126t19 96.5v29l-12 6q-12 -14 -25.5 -29.5t-27.5 -27.5q-31 -29 -61.5 -58.5t-69.5 -50.5q-43 -23 -91 -24q-3 -1 -7 -1 q-43 0 -84 17q-44 19 -83.5 54.5t-66.5 88.5q-47 82 -59 162z" />
<glyph unicode="z" horiz-adv-x="929" d="M51 922q-3 14 -3 28q0 18 6 36q12 30 46 36q138 30 276 52q86 13 177 14q55 0 111 -5q51 -4 92 -28.5t66.5 -62.5t33.5 -83q3 -16 3 -32q0 -28 -9 -56q-12 -31 -28.5 -60.5t-39.5 -55.5q-66 -80 -132 -158l-132 -156q-10 -12 -20.5 -25.5t-28.5 -31.5q76 -6 139.5 -10.5 t128.5 -10.5q113 -18 137 -100q3 -13 3 -25q0 -24 -14 -42q-21 -26 -77 -31q-129 -10 -256 -20.5t-256 -20.5h-12q-86 0 -151 78q-35 41 -41 84q-2 11 -2 21q0 31 14 58q27 61 68 107q72 80 144.5 160t145.5 159q10 10 21.5 17.5t23.5 19.5q-4 8 -12 17q-10 4 -23.5 5 t-23.5 3q-49 0 -96 -2q-24 -1 -47 -1l-47 1q-18 0 -38 2t-40 6q-39 14 -68 43t-39 70z" />
<glyph unicode="{" horiz-adv-x="878" d="M48 807q-21 49 13 90q18 16 43 29.5t50 25.5q43 27 89 51.5t87 53.5q41 27 53 67.5t8 87.5q-2 41 -5 79t-3 77q6 145 109 240q41 35 102 51q20 6 46 5t50 -5q47 -10 81 -41t50 -66q16 -39 3 -65.5t-58 -36.5q-72 -12 -82 -70q-10 -37 -21.5 -73.5t-7.5 -77.5 q27 -141 -28.5 -241.5t-171.5 -174.5q-4 -4 -10.5 -7t-10.5 -7q8 -8 11.5 -13.5t7.5 -9.5q78 -68 111.5 -138.5t29.5 -143.5q-2 -68 -10.5 -133.5t-12.5 -131.5q-4 -45 -7 -75.5t5.5 -50t30 -33t66.5 -21.5q86 -16 108.5 -51t2 -69.5t-72 -60.5t-110.5 -26q-74 0 -162 35 q-90 39 -137 97.5t-66 129.5q-20 63 -14 125q4 63 11 122t18 122q4 33 7 67.5t1 69.5q6 57 -66 82q-14 6 -26.5 13.5t-24.5 15.5q-66 37 -87 86z" />
<glyph unicode="|" horiz-adv-x="559" d="M76 1290q-12 70 22.5 116t88 61.5t108.5 -5t84 -84.5q49 -102 71.5 -234t26.5 -280.5t-7 -303t-30.5 -299t-44 -272.5t-47.5 -222q-4 -14 -10 -31t-16 -29q-16 -23 -44 -31t-63 5q-72 20 -88 88q-6 10 -7 21t-1 22q-4 371 -13.5 733t-29.5 745z" />
<glyph unicode="}" horiz-adv-x="878" d="M8.5 -71.5q-16.5 34.5 9 69.5t113.5 51q47 8 70.5 21.5t33 33t10.5 50t1 75.5q4 66 3 131.5t3 133.5q6 74 47 144.5t127 137.5q4 4 7 9.5t13 13.5q-4 4 -9 7t-9 7q-111 74 -154 174t-2 242q10 41 3 77.5t-15 73.5q-4 57 -74 70q-43 10 -53 36.5t10 65.5q18 35 57.5 66 t86.5 41q25 4 50 5t46 -5q57 -16 96 -51q90 -94 82 -240q-4 -39 -12 -77t-14 -79q-8 -47 0 -88t45 -67q37 -29 79.5 -53.5t83.5 -51.5q23 -12 46.5 -25.5t39.5 -29.5q29 -41 2.5 -90t-94.5 -86q-14 -8 -26.5 -15.5t-28.5 -13.5q-74 -25 -74 -82q-6 -35 -6 -69.5t-2 -67.5 q4 -63 5 -121.5t-3 -122.5q0 -29 -6 -60.5t-23 -64.5q-27 -72 -80 -130t-147 -97q-92 -35 -166 -35q-59 0 -107 26t-64.5 60.5z" />
<glyph unicode="~" horiz-adv-x="1132" d="M76 449q-10 74 16.5 150.5t76.5 140t117.5 106.5t141.5 49q49 6 95 -9.5t84 -46t62.5 -74.5t30.5 -95q2 -20 0 -61.5t3.5 -72t20.5 -39t52 39.5q41 47 66.5 101t42.5 120q20 96 92 76q41 -10 67.5 -44t26.5 -85q4 -127 -28.5 -230.5t-131.5 -173.5q-35 -23 -75.5 -38 t-90.5 -15q-49 0 -95 15.5t-85 45t-66.5 70.5t-41.5 92q-18 76 -37 86t-38.5 -15.5t-41.5 -73.5t-49 -87q-14 -47 -40 -62.5t-69 -5.5q-41 14 -70.5 51t-35.5 85z" />
<glyph unicode="&#xa2;" horiz-adv-x="956" d="M55 764q12 180 103.5 293.5t265.5 154.5q8 4 15 6.5t18 6.5q2 29 0 55.5t2 54.5q8 51 48 67.5t79 -11.5q53 -39 49 -103q-2 -23 -2 -45t-2 -45q31 -18 60.5 -34.5t56.5 -37.5q53 -39 82.5 -93t34.5 -111.5t-15.5 -110.5t-67.5 -90q-14 -10 -32.5 -18.5t-38.5 -8.5 q-27 -4 -47.5 10.5t-36.5 36.5q-31 53 2 99q12 20 23.5 40.5t-9.5 47.5q-18 27 -47 35t-59 6q-82 -6 -134 -66q-25 -29 -40 -68.5t-19 -82.5t3 -88.5t26 -83.5q23 -43 51.5 -60.5t75.5 -7.5q53 14 105 34.5t106 41.5q12 4 22 10t23 10q29 8 57.5 2t50 -23.5t31.5 -44 t4 -55.5q-4 -29 -18.5 -56.5t-36.5 -43.5q-86 -66 -180 -117q-25 -12 -42.5 -27.5t-19.5 -47.5q-2 -18 -8 -36t-14 -34q-16 -33 -42 -44t-57 -3q-33 6 -53 31.5t-25 64.5q-4 24 0 53q-8 4 -9 7.5t-3 3.5q-174 72 -261 209t-75 317z" />
<glyph unicode="&#xa3;" horiz-adv-x="1198" d="M62.5 201.5q3.5 48.5 43.5 81.5q41 33 83 59.5t83 54.5q29 18 53.5 43t43.5 72q-35 0 -62.5 -1t-54.5 1q-23 0 -45.5 2t-46.5 8q-39 8 -62.5 36t-29.5 60q-10 66 59 78q35 4 75 2t74 2q16 0 29.5 1t32.5 6q-10 45 -18.5 86t-18.5 84q-20 78 -30.5 156.5t3.5 150.5 q18 90 70.5 144t151.5 63q80 4 153.5 -28t134.5 -101q82 -88 76 -189q-12 -119 -76 -203q-37 -41 -88 -45t-129 45q10 -49 17.5 -87t15.5 -81q43 -2 81 -2t77 -4q29 0 58.5 -2t57.5 -8q39 -4 63 -28.5t30 -55.5q4 -29 -11.5 -49.5t-54.5 -22.5q-55 -2 -110.5 -3t-112.5 -3 q-10 -2 -18.5 -4t-18.5 -4q0 -41 -1 -83t-3 -87h100q59 -4 116.5 -9t115.5 -11q45 -10 92 -37q35 -18 54.5 -47t23.5 -64q6 -76 -64 -92q-29 -4 -58.5 -5t-60.5 -3q-102 -4 -205.5 -3t-205.5 -5q-68 -4 -131.5 -16.5t-126.5 -22.5q-59 -10 -110.5 9t-82.5 66 q-35 47 -31.5 95.5zM551 1108q-2 -27 4.5 -50.5t24.5 -31.5q25 25 39 54.5t17 55t-8.5 40t-39.5 6.5q-14 -4 -24.5 -25.5t-12.5 -48.5z" />
<glyph unicode="&#xa4;" horiz-adv-x="1001" d="M41 1008q8 41 46 52t83 -18q27 -16 49.5 -35.5t46.5 -35.5q12 -10 28.5 -16.5t29.5 -6.5q72 -2 142.5 0t141.5 0q51 0 70 33q14 31 41 59q25 29 59.5 32t69.5 -19q33 -23 47 -55.5t6 -67.5q-2 -10 -4 -17.5t-8 -15.5q-18 -35 -17.5 -73t29.5 -87q37 -59 33 -113.5 t-33 -101.5q-14 -27 -32 -50t-38 -52q25 -27 54 -47q80 -72 37 -131q-16 -25 -52 -25t-77 25q-27 16 -50.5 34.5t-50.5 32.5q-12 12 -27.5 17.5t-29.5 9.5q-49 8 -100.5 14t-100.5 10q-2 6 -4 10.5t-2 8.5q-12 -16 -22.5 -31.5t-20.5 -32.5q-10 -16 -18.5 -30.5t-18.5 -24.5 q-18 -25 -46 -26t-56 16q-29 16 -44.5 42.5t-6.5 55.5q10 41 24 77t29 73q6 12 8 25.5t-10 33.5q-41 66 -50.5 131.5t7.5 134.5q-27 16 -53.5 35t-49.5 39q-29 23 -46 49.5t-13 61.5zM488.5 700.5q-13.5 -26.5 7.5 -67.5q16 -37 46.5 -55.5t69.5 -8.5q78 18 105 88 q10 18 1 35t-36 23q-23 10 -47.5 14t-40.5 8h-29.5t-25.5 -2q-37 -8 -50.5 -34.5z" />
<glyph unicode="&#xa5;" horiz-adv-x="1232" d="M64 1319q2 61 32.5 96t79.5 35t98 -55q76 -86 148 -158t162 -125q18 33 43.5 77t54.5 86t58.5 79t56.5 59q31 25 66.5 32t69.5 -1t64.5 -31.5t51.5 -60.5q23 -45 17.5 -78t-24.5 -68q-39 -76 -75.5 -155.5t-77.5 -161.5q-4 -12 -10.5 -27.5t-10.5 -38.5q25 -4 41.5 -5 t32.5 -1q20 -2 42 -1t44 -3q41 -10 68.5 -37.5t31.5 -64.5q4 -35 -13 -55.5t-56 -22.5q-49 -4 -99.5 -11.5t-103.5 -5.5q-47 0 -65.5 -26.5t-20.5 -79.5q41 0 77 2t75 -2q35 -4 71.5 -6t71.5 -8q41 -10 66.5 -41t27.5 -70q2 -68 -72 -74q-86 -4 -168.5 -12t-168.5 -12 q-37 -2 -61.5 -21.5t-35.5 -62.5q-4 -39 -12 -76t-18 -74q-33 -131 -123 -98q-47 14 -76 59t-39 115q-2 18 -5 37.5t-5 52.5q-51 -20 -96 -33q-35 -10 -71 9.5t-58 56.5q-25 47 -20 89t44 58q41 18 82 28.5t88 21.5q35 6 51 29.5t2 82.5q-39 -16 -71.5 -29.5t-61.5 -27.5 q-41 -23 -76.5 -8.5t-62.5 59.5q-25 43 -20.5 86t42.5 59q41 20 84 30.5t88 27.5q20 6 40 11t40 9q72 4 72 94q-31 23 -60.5 43.5t-62.5 42.5q-66 47 -126 103.5t-111 128.5q-49 68 -47 129z" />
<glyph unicode="&#xad;" d="M80 582q-10 41 13.5 65.5t64.5 20.5q135 -4 254.5 0t236.5 2q45 2 78 -17.5t42 -48.5t-12.5 -58.5t-84.5 -47.5q-129 -20 -240.5 -17t-228.5 13q-47 2 -80 26.5t-43 61.5z" />
<glyph unicode="&#xb1;" horiz-adv-x="800" d="M53 152q-6 43 15.5 70.5t72.5 31.5q123 6 237.5 3t229.5 -3h18.5t20.5 -4q63 -6 96 -72q14 -29 11.5 -55.5t-25.5 -38.5q-16 -12 -36.5 -20.5t-41.5 -10.5q-106 -16 -213.5 -21t-220.5 5q-14 0 -22 2q-55 8 -93.5 37.5t-48.5 75.5zM66 594q-20 70 36 98q18 10 41 14.5 t50 10.5q14 2 28.5 2h30.5h63q4 20 7.5 39.5t5.5 38.5q18 96 94 80q41 -10 67.5 -39t36.5 -74q2 -14 2 -26.5t4 -28.5q53 -8 101 -27q43 -12 68.5 -42t23.5 -65q0 -70 -88 -69h-121q-2 -20 -4 -38.5t-6 -39.5q-2 -16 -2 -31.5t-6 -31.5q-6 -31 -27.5 -45.5t-50.5 -10.5 q-31 4 -56.5 24.5t-35.5 55.5q-8 27 -11.5 54.5t-9.5 62.5q-41 0 -74.5 -2t-68.5 2t-61.5 29.5t-36.5 58.5z" />
<glyph unicode="&#xd7;" horiz-adv-x="655" d="M81 498q-7 37 13 65q10 16 25.5 29.5t32.5 28.5q-25 41 -40.5 80.5t17.5 70.5q20 20 44 20.5t48.5 -9t49 -25t51.5 -25.5q16 10 32.5 22.5t32.5 22.5q74 45 131 -14q53 -57 4 -119q-4 -6 -8 -10t-12 -14q14 -12 26.5 -24.5t24.5 -29.5q45 -51 25 -100q-10 -23 -35 -31 t-60 2q-31 10 -61 23q-16 8 -32 13t-34 15q-14 -12 -26.5 -26t-28.5 -27q-10 -10 -21.5 -20t-27.5 -17q-31 -18 -68 -8t-65 41q-31 29 -38 66z" />
<glyph unicode="&#xf7;" horiz-adv-x="669" d="M74 569q-4 35 14 57.5t55 28.5q43 4 86 5.5t86 3.5q45 4 90.5 5t90.5 3h22t23 -2q29 -6 49 -21.5t28 -46.5q8 -29 -5 -53.5t-40 -36.5q-20 -8 -41.5 -10t-42.5 -4q-29 -4 -56 -6.5t-58 -4.5q55 -59 64.5 -98t-19.5 -74q-31 -39 -74 -34.5t-73.5 33t-38 73.5t31.5 88 q-31 4 -58.5 6t-51.5 6q-76 16 -82 82zM264 758q-4 27 15.5 46t48.5 19t49 -20t22 -49q4 -27 -12 -46.5t-45 -21.5t-52.5 20.5t-25.5 51.5z" />
<glyph unicode="&#x2000;" horiz-adv-x="844" />
<glyph unicode="&#x2001;" horiz-adv-x="1688" />
<glyph unicode="&#x2002;" horiz-adv-x="844" />
<glyph unicode="&#x2003;" horiz-adv-x="1688" />
<glyph unicode="&#x2004;" horiz-adv-x="562" />
<glyph unicode="&#x2005;" horiz-adv-x="422" />
<glyph unicode="&#x2006;" horiz-adv-x="281" />
<glyph unicode="&#x2007;" horiz-adv-x="281" />
<glyph unicode="&#x2008;" horiz-adv-x="211" />
<glyph unicode="&#x2009;" horiz-adv-x="337" />
<glyph unicode="&#x200a;" horiz-adv-x="93" />
<glyph unicode="&#x2010;" d="M80 582q-10 41 13.5 65.5t64.5 20.5q135 -4 254.5 0t236.5 2q45 2 78 -17.5t42 -48.5t-12.5 -58.5t-84.5 -47.5q-129 -20 -240.5 -17t-228.5 13q-47 2 -80 26.5t-43 61.5z" />
<glyph unicode="&#x2011;" d="M80 582q-10 41 13.5 65.5t64.5 20.5q135 -4 254.5 0t236.5 2q45 2 78 -17.5t42 -48.5t-12.5 -58.5t-84.5 -47.5q-129 -20 -240.5 -17t-228.5 13q-47 2 -80 26.5t-43 61.5z" />
<glyph unicode="&#x2012;" d="M80 582q-10 41 13.5 65.5t64.5 20.5q135 -4 254.5 0t236.5 2q45 2 78 -17.5t42 -48.5t-12.5 -58.5t-84.5 -47.5q-129 -20 -240.5 -17t-228.5 13q-47 2 -80 26.5t-43 61.5z" />
<glyph unicode="&#x2013;" horiz-adv-x="1174" d="M81 582q-14 41 20.5 65.5t94.5 20.5q199 -4 375.5 0t348.5 2q67 2 115.5 -17.5t61.5 -48.5t-18.5 -58.5t-124.5 -47.5q-190 -20 -354.5 -17t-336.5 13q-70 2 -118.5 26.5t-63.5 61.5z" />
<glyph unicode="&#x2014;" horiz-adv-x="2198" d="M86 582q-30 41 39.5 65.5t190.5 20.5q398 -4 750 0t697 2q133 2 230.5 -17.5t124 -48.5t-37 -58.5t-249.5 -47.5q-380 -20 -709 -17t-674 13q-138 2 -235.5 26.5t-126.5 61.5z" />
<glyph unicode="&#x2018;" horiz-adv-x="391" d="M96 1241q0 66 2 146.5t11 146.5q4 39 37.5 54.5t71.5 10t67.5 -29t23.5 -60.5q-2 -29 -6 -67.5t-8 -79.5t-10 -79t-13 -66q-10 -37 -38.5 -49.5t-59.5 -6.5t-54.5 27.5t-23.5 52.5z" />
<glyph unicode="&#x2019;" horiz-adv-x="391" d="M96 1241q0 66 2 146.5t11 146.5q4 39 37.5 54.5t71.5 10t67.5 -29t23.5 -60.5q-2 -29 -6 -67.5t-8 -79.5t-10 -79t-13 -66q-10 -37 -38.5 -49.5t-59.5 -6.5t-54.5 27.5t-23.5 52.5z" />
<glyph unicode="&#x201c;" horiz-adv-x="641" d="M96 1241q0 66 2 146.5t11 146.5q4 39 37.5 54.5t71.5 10t67.5 -29t23.5 -60.5q-2 -29 -6 -67.5t-8 -79.5t-10 -79t-13 -66q-10 -37 -38.5 -49.5t-59.5 -6.5t-54.5 27.5t-23.5 52.5zM360 1241q0 66 2.5 146.5t10.5 146.5q4 39 37.5 54.5t71.5 10t68 -29t23 -60.5 q-2 -29 -6 -67.5t-8 -79.5t-10 -79t-12 -66q-10 -37 -39 -49.5t-59.5 -6.5t-54.5 27.5t-24 52.5z" />
<glyph unicode="&#x201d;" horiz-adv-x="641" d="M96 1241q0 66 2 146.5t11 146.5q4 39 37.5 54.5t71.5 10t67.5 -29t23.5 -60.5q-2 -29 -6 -67.5t-8 -79.5t-10 -79t-13 -66q-10 -37 -38.5 -49.5t-59.5 -6.5t-54.5 27.5t-23.5 52.5zM360 1241q0 66 2.5 146.5t10.5 146.5q4 39 37.5 54.5t71.5 10t68 -29t23 -60.5 q-2 -29 -6 -67.5t-8 -79.5t-10 -79t-12 -66q-10 -37 -39 -49.5t-59.5 -6.5t-54.5 27.5t-24 52.5z" />
<glyph unicode="&#x202f;" horiz-adv-x="337" />
<glyph unicode="&#x205f;" horiz-adv-x="422" />
<glyph unicode="&#x20ac;" horiz-adv-x="1290" d="M31 885q-4 41 18.5 66.5t63.5 27.5q8 0 16 -1t16 -1q96 -20 142 84q66 143 173 245.5t227 143.5t238.5 11.5t207.5 -148.5q51 -72 57 -159t-29 -159q-31 -57 -90 -51q-35 4 -54.5 27.5t-29.5 56.5q-4 10 -5 18.5t-5 18.5q-27 96 -111 90q-74 -4 -132 -45t-113 -106 q27 -4 43 -6.5t32 -4.5q20 -2 40 -3t38 -5q72 -23 76 -90q-2 -35 -18.5 -56.5t-51.5 -23.5q-55 -6 -113.5 -10t-113.5 -8q-12 -4 -26.5 -9.5t-26.5 -9.5q4 -16 4 -26h82q31 -2 60.5 -1t60.5 -3q33 -8 52 -32t23 -54q2 -33 -15 -56.5t-52 -34.5q-41 -4 -80 -9t-84 -9 q-10 0 -23.5 -4t-29.5 -8q16 -135 78.5 -185.5t158.5 -7.5q82 43 164 98.5t166 106.5l18.5 18.5t18.5 16.5q25 12 50.5 10t47 -16.5t35.5 -40t16 -56.5q0 -31 -6 -63.5t-20 -56.5q-82 -121 -178.5 -214.5t-225.5 -138.5q-98 -35 -191 -22.5t-172 66t-139.5 143.5t-95.5 213 q-4 23 -9 41t-11 43q-16 6 -31.5 11t-32.5 9q-35 16 -55.5 42t-24.5 60q-4 35 16.5 56.5t55.5 32.5q10 4 23.5 3t21.5 7q8 10 12.5 21.5t12.5 25.5q-27 4 -48.5 6t-39.5 10q-39 10 -60.5 38t-21.5 67z" />
<glyph unicode="&#x2122;" horiz-adv-x="1028" d="M78 1458q6 14 22 17q20 4 41 6t43 4q59 4 117.5 10t118.5 10q6 0 12 1t10 1q33 4 52 -22q16 -23 -5 -35l-30 -12q-20 -4 -39 -8.5t-39 -8.5q-12 -2 -14 -10q-8 -47 -16.5 -94t-16.5 -94l-8 -62t-9 -63q0 -8 -2 -13q-6 -25 -36 -14q-31 6 -41 35q-4 12 -7.5 24.5 t-5.5 22.5q-10 63 -13 123.5t13 114.5v14q-20 -2 -39.5 -2t-40.5 -2q-31 0 -51 18q-23 20 -16 39zM535 1192q-2 68 2 133.5t14 130.5q4 31 43 25q41 -6 57 -41q4 -14 7.5 -26.5t7.5 -24.5q4 -16 8 -31t8 -31q0 -2 4 -2q2 8 8 14q16 33 32.5 64t39.5 59q10 12 21.5 24.5 t21.5 22.5q25 27 72 11q47 -20 57 -62q2 -20 0 -39q0 -16 -3 -31.5t-5 -29.5q-4 -35 -5 -73t-1 -73q0 -57 -6 -114v-8q-6 -18 -31 -17q-29 0 -47 23q-6 6 -11.5 14t-9.5 16q-29 68 -28 129q0 4 -1.5 7.5t-1.5 7.5l-2 2q-2 -4 -4 -7t-4 -8q-6 -10 -11 -21t-11 -22 q-4 -4 -8.5 -9t-10.5 -9q-16 -12 -40.5 -7t-47.5 25q-8 8 -14 16.5t-17 18.5v-22v-60.5t3 -60.5q0 -12 -3 -16q0 -18 -24 -19q-23 0 -37 19q-10 10 -14 24q-4 20 -6 38.5t-2 39.5z" />
<glyph unicode="&#x25fc;" horiz-adv-x="1075" d="M0 0v1075h1075v-1075h-1075z" />
</font>
</defs>
</svg>
