<?xml version="1.0" standalone="no"?>
<!DOCTYPE svg PUBLIC "-//W3C//DTD SVG 1.1//EN" "http://www.w3.org/Graphics/SVG/1.1/DTD/svg11.dtd" >
<svg xmlns="http://www.w3.org/2000/svg" xmlns:xlink="http://www.w3.org/1999/xlink" version="1.1">
<metadata></metadata>
<defs>
<font id="source_code_probold" horiz-adv-x="600" >
<font-face units-per-em="1000" ascent="750" descent="-250" />
<missing-glyph horiz-adv-x="500" />
<glyph horiz-adv-x="0" />
<glyph />
<glyph unicode=" " />
<glyph unicode="!" d="M200 90q0 44 28.5 72t71.5 28t71.5 -28t28.5 -72q0 -45 -28.5 -73.5t-71.5 -28.5t-71.5 28.5t-28.5 73.5zM227 670h146l-5 -133l-20 -282h-96l-20 282z" />
<glyph unicode="&#x22;" d="M82 685h170l-5 -145l-35 -237h-90l-35 237zM348 685h170l-5 -145l-35 -237h-90l-35 237z" />
<glyph unicode="#" d="M70 187v94h87l13 110h-80v94h92l20 165h84l-20 -165h105l20 165h84l-20 -165h79v-94h-90l-14 -110h84v-94h-95l-23 -187h-85l23 187h-104l-23 -187h-85l23 187h-75zM241 281h105l13 110h-104z" />
<glyph unicode="$" d="M64 115l64 100q100 -62 181 -62q74 0 74 45q0 23 -30 40.5t-73 32.5t-86 35t-73 57t-30 88q0 64 44 107.5t120 55.5v131h98v-130q92 -12 160 -82l-73 -84q-71 50 -139 50q-69 0 -69 -46q0 -19 30 -34.5t72.5 -30.5t85.5 -34.5t73 -56.5t30 -88q0 -64 -44 -110t-126 -60 v-149h-98v146q-51 5 -103 26t-88 53z" />
<glyph unicode="%" d="M18 101l186 173l51 -47l-162 -199zM25 481q0 77 41.5 122t106.5 45t106.5 -45t41.5 -122q0 -76 -41.5 -122.5t-106.5 -46.5t-106.5 46.5t-41.5 122.5zM125 481q0 -90 48 -90t48 90q0 88 -48 88t-48 -88zM279 157q0 77 41.5 122t106.5 45t106.5 -45t41.5 -122 q0 -76 -41.5 -122.5t-106.5 -46.5t-106.5 46.5t-41.5 122.5zM347 425l162 199l75 -73l-186 -174zM379 157q0 -90 48 -90t48 90q0 88 -48 88t-48 -88z" />
<glyph unicode="&#x26;" d="M23 174q0 102 105 179q-42 79 -42 140q0 72 44.5 121.5t116.5 49.5q73 0 115 -40t42 -108q0 -39 -20.5 -75t-42 -56t-61.5 -51q44 -57 117 -116q38 66 55 150h134q-31 -123 -91 -220q51 -32 91 -41l-35 -119q-67 16 -138 63q-79 -63 -181 -63q-98 0 -153.5 53.5 t-55.5 132.5zM162 183q0 -37 24.5 -60t64.5 -23q32 0 64 23q-74 64 -124 133q-29 -35 -29 -73zM207 494q0 -34 19 -75q65 47 65 97q0 51 -41 51q-19 0 -31 -20t-12 -53z" />
<glyph unicode="'" d="M215 685h170l-5 -145l-35 -237h-90l-35 237z" />
<glyph unicode="(" d="M181 278q0 270 211 457l82 -65q-89 -87 -129.5 -180t-40.5 -212t40.5 -212t129.5 -180l-82 -65q-211 187 -211 457z" />
<glyph unicode=")" d="M126 -114q89 87 129.5 180t40.5 212t-40.5 212t-129.5 180l82 65q211 -187 211 -457t-211 -457z" />
<glyph unicode="*" d="M64 360l23 71l162 -43l12 178h78l12 -178l162 43l23 -71l-153 -68l97 -157l-64 -44l-116 142l-116 -142l-64 44l97 157z" />
<glyph unicode="+" d="M70 278v104h176v184h108v-184h176v-104h-176v-184h-108v184h-176z" />
<glyph unicode="," d="M182 -131q133 46 130 142q-4 -1 -11 -1q-45 0 -76.5 27.5t-31.5 74.5q0 46 32.5 74.5t79.5 28.5q61 0 92.5 -45t31.5 -127q0 -96 -53.5 -162.5t-156.5 -97.5z" />
<glyph unicode="-" d="M70 278v104h460v-104h-460z" />
<glyph unicode="." d="M184 105q0 50 32.5 84t83.5 34t83.5 -34t32.5 -84t-32.5 -83.5t-83.5 -33.5t-83.5 33.5t-32.5 83.5z" />
<glyph unicode="/" d="M74 -160l329 870h123l-329 -870h-123z" />
<glyph unicode="0" d="M56 320q0 159 65.5 243t178.5 84t178.5 -84t65.5 -243t-66 -245.5t-178 -86.5t-178 86.5t-66 245.5zM187 320q0 -218 113 -218t113 218q0 213 -113 213t-113 -213zM225 322q0 34 21.5 55t53.5 21t53.5 -21t21.5 -55t-21.5 -55t-53.5 -21t-53.5 21t-21.5 55z" />
<glyph unicode="1" d="M82 0v119h163v367h-132v91q101 18 171 58h108v-516h144v-119h-454z" />
<glyph unicode="2" d="M51 546q52 52 104 76.5t123 24.5q100 0 162 -55.5t62 -146.5q0 -73 -62 -153t-171 -176q72 8 115 8h151v-124h-477v84q81 68 126.5 108.5t91.5 88.5t66 85t20 70q0 46 -27 71t-77 25q-59 0 -128 -65z" />
<glyph unicode="3" d="M42 78l68 93q73 -64 155 -64q53 0 86 20t33 55q0 45 -43 68t-149 23v104q171 0 171 85q0 33 -25 51.5t-69 18.5q-65 0 -135 -56l-74 90q100 81 216 81q106 0 170 -46t64 -128q0 -95 -121 -141v-4q64 -17 103 -56.5t39 -98.5q0 -85 -73.5 -135t-178.5 -50q-155 0 -237 90z " />
<glyph unicode="4" d="M35 152v101l265 382h178v-371h80v-112h-80v-152h-137v152h-306zM177 264h164v107q0 39 5 139h-4q-11 -20 -35.5 -56.5t-33.5 -51.5z" />
<glyph unicode="5" d="M46 77l66 93q76 -63 150 -63q56 0 89.5 25.5t33.5 73.5q0 47 -32 72.5t-84 25.5q-50 0 -107 -32l-65 42l17 321h389v-124h-262l-11 -119q40 15 84 15q94 0 156 -50.5t62 -146.5q0 -102 -73 -162t-176 -60q-144 0 -237 89z" />
<glyph unicode="6" d="M60 303q0 167 80 255.5t194 88.5q122 0 202 -76l-77 -88q-51 45 -112 45q-64 0 -105.5 -47.5t-45.5 -152.5q71 69 153 69q88 0 142 -50t54 -146t-66.5 -154.5t-161.5 -58.5q-50 0 -95 18.5t-82 55t-58.5 98.5t-21.5 143zM200 231q20 -133 114 -133q41 0 69 26t28 77 q0 92 -94 92q-63 0 -117 -62z" />
<glyph unicode="7" d="M62 511v124h477v-90q-60 -67 -97 -124t-58 -123.5t-29.5 -131t-13.5 -166.5h-148q9 163 49.5 275.5t138.5 235.5h-319z" />
<glyph unicode="8" d="M61 162q0 98 120 156v4q-93 65 -93 150q0 80 60 127.5t156 47.5q95 0 151.5 -47.5t56.5 -126.5q0 -81 -91 -139v-4q119 -59 119 -166q0 -77 -64 -126.5t-177 -49.5q-109 0 -173.5 48t-64.5 126zM188 179q0 -41 32.5 -65t82.5 -24q46 0 73 20t27 59q0 37 -31 57.5 t-105 47.5q-11 4 -17 6q-62 -45 -62 -101zM217 472q0 -36 31 -58.5t95 -43.5q48 44 48 93q0 37 -23.5 59.5t-66.5 22.5q-37 0 -60.5 -19t-23.5 -54z" />
<glyph unicode="9" d="M53 434q0 96 66.5 154.5t161.5 58.5q108 0 182.5 -79t74.5 -236q0 -168 -79.5 -256t-193.5 -88q-119 0 -203 76l78 88q49 -45 112 -45q64 0 105.5 48t45.5 153q-34 -33 -75.5 -51.5t-77.5 -18.5q-88 0 -142.5 50t-54.5 146zM187 434q0 -92 95 -92q67 0 117 63 q-11 70 -42 101t-73 31q-41 0 -69 -26t-28 -77z" />
<glyph unicode=":" d="M184 105q0 50 32.5 84t83.5 34t83.5 -34t32.5 -84t-32.5 -83.5t-83.5 -33.5t-83.5 33.5t-32.5 83.5zM184 428q0 50 32.5 84t83.5 34t83.5 -34t32.5 -84t-32.5 -83.5t-83.5 -33.5t-83.5 33.5t-32.5 83.5z" />
<glyph unicode=";" d="M182 -131q133 46 130 142q-4 -1 -11 -1q-45 0 -76.5 27.5t-31.5 74.5q0 46 32.5 74.5t79.5 28.5q61 0 92.5 -45t31.5 -127q0 -96 -53.5 -162.5t-156.5 -97.5zM184 428q0 50 32.5 84t83.5 34t83.5 -34t32.5 -84t-32.5 -83.5t-83.5 -33.5t-83.5 33.5t-32.5 83.5z" />
<glyph unicode="&#x3c;" d="M116 281v102l386 250v-133l-265 -166v-4l265 -166v-133z" />
<glyph unicode="=" d="M70 162v104h460v-104h-460zM70 394v104h460v-104h-460z" />
<glyph unicode="&#x3e;" d="M98 31v133l265 166v4l-265 166v133l386 -250v-102z" />
<glyph unicode="?" d="M98 592q82 90 194 90q91 0 148 -42t57 -121q0 -36 -16.5 -66t-40 -51t-46.5 -41.5t-37 -47t-11 -58.5h-128q-6 37 6 69t33.5 54.5t43.5 41.5t38.5 39.5t16.5 40.5q0 30 -20.5 46.5t-53.5 16.5q-51 0 -102 -46zM186 90q0 44 28.5 72t71.5 28t71.5 -28t28.5 -72 q0 -45 -28.5 -73.5t-71.5 -28.5t-71.5 28.5t-28.5 73.5z" />
<glyph unicode="@" d="M31 253q0 193 84.5 292t215.5 99q109 0 164 -67.5t55 -177.5v-299h-78l-11 51h-4q-43 -63 -120 -63q-54 0 -90.5 40.5t-36.5 99.5q0 77 63.5 117t185.5 55v16q0 59 -34 99.5t-97 40.5q-80 0 -138 -77t-58 -230q0 -148 62 -227.5t150 -79.5q69 0 133 38l42 -73 q-92 -54 -180 -54q-129 0 -218.5 103.5t-89.5 296.5zM317 232q0 -22 14 -35t39 -13q38 0 74 36v92q-70 -11 -98.5 -29t-28.5 -51z" />
<glyph unicode="A" d="M9 0l203 652h176l203 -652h-156l-39 155h-197l-40 -155h-150zM229 270h137l-15 60q-38 144 -52 210h-4q-31 -132 -51 -210z" />
<glyph unicode="B" d="M74 0v652h219q239 0 239 -162q0 -47 -28.5 -87t-83.5 -54v-4q142 -26 142 -153q0 -95 -69 -143.5t-181 -48.5h-238zM221 115h79q118 0 118 88q0 42 -28.5 61.5t-89.5 19.5h-79v-169zM221 390h65q102 0 102 80q0 36 -24.5 51.5t-76.5 15.5h-66v-147z" />
<glyph unicode="C" d="M54 322q0 158 88 250t223 92q110 0 195 -83l-81 -91q-52 47 -114 47q-70 0 -115 -57t-45 -153q0 -99 45.5 -155.5t120.5 -56.5q65 0 118 58l81 -89q-81 -96 -214 -96q-128 0 -215 88.5t-87 245.5z" />
<glyph unicode="D" d="M70 0v652h180q148 0 231 -80t83 -243t-82 -246t-223 -83h-189zM218 119h24q171 0 171 210q0 111 -44.5 157.5t-126.5 46.5h-24v-414z" />
<glyph unicode="E" d="M92 0v652h432v-124h-284v-131h241v-123h-241v-150h294v-124h-442z" />
<glyph unicode="F" d="M105 0v652h433v-124h-286v-151h244v-124h-244v-253h-147z" />
<glyph unicode="G" d="M44 322q0 159 85 250.5t216 91.5q108 0 191 -83l-81 -91q-47 47 -110 47q-65 0 -107 -57t-42 -153q0 -102 39.5 -157t115.5 -55q42 0 64 20v112h-95v120h227v-300q-36 -33 -90.5 -56t-113.5 -23q-131 0 -215 87.5t-84 246.5z" />
<glyph unicode="H" d="M64 0v652h147v-251h178v251h147v-652h-147v272h-178v-272h-147z" />
<glyph unicode="I" d="M74 0v124h152v404h-152v124h452v-124h-152v-404h152v-124h-452z" />
<glyph unicode="J" d="M59 96l85 91q57 -72 124 -72q52 0 76.5 27t24.5 92v295h-255v123h402v-430q0 -105 -58 -169.5t-185 -64.5q-137 0 -214 108z" />
<glyph unicode="K" d="M68 0v652h149v-267h3l193 267h163l-196 -259l214 -393h-163l-139 277l-75 -99v-178h-149z" />
<glyph unicode="L" d="M107 0v652h147v-528h290v-124h-437z" />
<glyph unicode="M" d="M58 0v652h154l64 -231l22 -90h4l22 90l64 231h154v-652h-124v202q0 80 19 302h-3l-50 -174l-50 -157h-72l-51 157l-47 174h-3q19 -190 19 -302v-202h-122z" />
<glyph unicode="N" d="M66 0v652h151l137 -324l56 -144h4q-1 15 -7.5 69t-10 93.5t-3.5 74.5v231h141v-652h-151l-137 325l-56 142h-4q2 -20 8 -71t9.5 -91t3.5 -74v-231h-141z" />
<glyph unicode="O" d="M38 329q0 160 71.5 247.5t190.5 87.5t190.5 -87.5t71.5 -247.5q0 -163 -71.5 -252t-190.5 -89t-190.5 89t-71.5 252zM189 329q0 -104 29.5 -159t81.5 -55t81.5 55t29.5 159q0 100 -29.5 154t-81.5 54t-81.5 -54t-29.5 -154z" />
<glyph unicode="P" d="M75 0v652h231q116 0 185.5 -49.5t69.5 -160.5q0 -109 -72 -165t-183 -56h-84v-221h-147zM222 338h75q120 0 120 104q0 50 -30 71.5t-90 21.5h-75v-197z" />
<glyph unicode="Q" d="M39 329q0 160 71 247.5t190 87.5t190 -87.5t71 -247.5q0 -132 -46.5 -215.5t-129.5 -111.5q32 -62 120 -62q28 0 52 13l26 -110q-39 -21 -96 -21q-92 0 -158 47t-97 127q-90 24 -141.5 109.5t-51.5 223.5zM189 329q0 -110 29.5 -165.5t81.5 -55.5t81.5 55.5t29.5 165.5 q0 100 -29.5 154t-81.5 54t-81.5 -54t-29.5 -154z" />
<glyph unicode="R" d="M70 0v652h231q252 0 252 -203q0 -136 -116 -188l147 -261h-165l-125 235h-77v-235h-147zM217 352h72q119 0 119 97q0 47 -29 66.5t-90 19.5h-72v-183z" />
<glyph unicode="S" d="M50 82l85 101q83 -68 173 -68q46 0 69 15.5t23 41.5q0 29 -19.5 43.5t-66.5 34.5l-15 6l-84 36q-61 23 -100 67.5t-39 110.5q0 82 67.5 138t171.5 56q126 0 217 -86l-75 -93q-71 52 -150 52q-37 0 -59.5 -15.5t-22.5 -43.5q0 -14 6.5 -24.5t25 -20.5t31 -15t44.5 -17 l79 -34q140 -52 140 -177q0 -85 -68 -143.5t-185 -58.5q-142 0 -248 94z" />
<glyph unicode="T" d="M31 528v124h538v-124h-195v-528h-148v528h-195z" />
<glyph unicode="U" d="M64 251v401h147v-416q0 -121 91 -121q92 0 92 121v416h142v-401q0 -128 -58.5 -195.5t-175.5 -67.5q-118 0 -178 67.5t-60 195.5z" />
<glyph unicode="V" d="M15 652h156l78 -304q11 -39 27.5 -109t24.5 -100h4q11 39 28 108t25 101l77 304h150l-196 -652h-177z" />
<glyph unicode="W" d="M4 652h153l20 -347q0 -20 1 -75.5t2 -88.5h4q3 17 32 164l44 182h94l41 -182q26 -126 32 -164h4q2 102 4 164l18 347h143l-80 -652h-158l-38 202q-16 81 -18 124h-3q-8 -78 -17 -124l-38 -202h-153z" />
<glyph unicode="X" d="M18 0l190 335l-179 317h165l63 -123q8 -16 24 -50.5t26 -54.5h4q26 65 44 105l58 123h158l-179 -324l190 -328h-164l-71 133q-26 48 -52 107h-4q-13 -33 -48 -107l-68 -133h-157z" />
<glyph unicode="Y" d="M16 652h158l66 -157q10 -26 30 -75t29 -74h4q10 24 30 73t31 76l66 157h154l-210 -432v-220h-148v220z" />
<glyph unicode="Z" d="M56 0v89l305 440h-276v123h458v-89l-305 -439h309v-124h-491z" />
<glyph unicode="[" d="M200 -152v860h296v-78h-184v-704h184v-78h-296z" />
<glyph unicode="\" d="M74 710h123l329 -870h-123z" />
<glyph unicode="]" d="M104 -74h184v704h-184v78h296v-860h-296v78z" />
<glyph unicode="^" d="M86 274l155 396h118l155 -396h-121l-46 128l-45 135h-4l-45 -135l-46 -128h-121z" />
<glyph unicode="_" d="M60 -54h480v-110h-480v110z" />
<glyph unicode="`" d="M125 717l100 98l153 -182l-72 -72z" />
<glyph unicode="a" d="M61 138q0 84 76.5 127.5t250.5 53.5q-8 72 -106 72q-59 0 -151 -46l-52 96q117 67 232 67q107 0 165.5 -56t58.5 -168v-284h-120l-11 56h-4q-89 -68 -176 -68q-73 0 -118 43t-45 107zM202 149q0 -47 69 -47q56 0 117 47v82q-103 -6 -144.5 -26.5t-41.5 -55.5z" />
<glyph unicode="b" d="M72 0v701h147v-172l-5 -78h3q59 57 136 57q92 0 146 -68t54 -183q0 -123 -63.5 -196t-151.5 -73q-72 0 -135 66h-4l-12 -54h-115zM219 141q38 -33 86 -33q43 0 70 36.5t27 109.5q0 134 -91 134q-47 0 -92 -46v-201z" />
<glyph unicode="c" d="M67 248q0 119 83.5 189.5t203.5 70.5q114 0 186 -67l-68 -91q-55 39 -110 39q-64 0 -104 -38.5t-40 -102.5t38.5 -102.5t100.5 -38.5q63 0 131 47l59 -93q-88 -73 -204 -73q-121 0 -198.5 69.5t-77.5 190.5z" />
<glyph unicode="d" d="M47 248q0 117 63.5 188.5t148.5 71.5q74 0 125 -53h4l-7 77v169h147v-701h-120l-11 51h-3q-65 -63 -138 -63q-95 0 -152 69.5t-57 190.5zM198 250q0 -142 96 -142q51 0 87 46v201q-37 33 -83 33q-43 0 -71.5 -35.5t-28.5 -102.5z" />
<glyph unicode="e" d="M55 248q0 117 76.5 188.5t181.5 71.5q111 0 172.5 -66.5t61.5 -171.5q0 -24 -7 -66h-338q20 -104 148 -104q61 0 128 35l49 -89q-92 -58 -197 -58q-120 0 -197.5 69.5t-77.5 190.5zM204 303h212q-11 93 -98 93q-92 0 -114 -93z" />
<glyph unicode="f" d="M82 381v109l131 6v13q0 91 55.5 147.5t166.5 56.5q69 0 150 -27l-28 -108q-49 19 -104 19q-93 0 -93 -87v-14h171v-115h-171v-381h-147v381h-131z" />
<glyph unicode="g" d="M52 -84q0 61 77 99v4q-50 30 -50 85q0 24 16 49.5t43 43.5v4q-65 43 -65 127q0 85 61.5 132.5t150.5 47.5q46 0 82 -12h201v-108h-100q22 -30 22 -65q0 -82 -57 -124t-148 -42q-32 0 -68 10q-22 -16 -22 -37q0 -37 84 -37h92q201 0 201 -125q0 -79 -81 -129t-214 -50 q-102 0 -163.5 31.5t-61.5 95.5zM172 -62q0 -56 126 -56q59 0 96.5 17t37.5 43q0 23 -20.5 30.5t-66.5 7.5h-62q-51 0 -76 7q-35 -22 -35 -49zM211 328q0 -39 21 -60.5t53 -21.5t53.5 21.5t21.5 60.5q0 38 -21.5 59.5t-53.5 21.5t-53 -21.5t-21 -59.5z" />
<glyph unicode="h" d="M72 0v701h147v-172l-8 -95h3q72 74 165 74q81 0 121 -53t40 -149v-306h-147v287q0 50 -16.5 73t-56.5 23q-28 0 -50.5 -12t-50.5 -40v-331h-147z" />
<glyph unicode="i" d="M79 381v115h346v-496h-147v381h-199zM247 663q0 40 27.5 66t70.5 26t70.5 -26t27.5 -66t-27.5 -64.5t-70.5 -24.5t-70.5 24.5t-27.5 64.5z" />
<glyph unicode="j" d="M42 -162l43 105q53 -24 101 -24q52 0 72 24.5t20 80.5v357h-199v115h346v-466q0 -226 -230 -226q-80 0 -153 34zM247 663q0 40 27.5 66t70.5 26t70.5 -26t27.5 -66t-27.5 -64.5t-70.5 -24.5t-70.5 24.5t-27.5 64.5z" />
<glyph unicode="k" d="M76 0v701h147v-405h4l182 200h161l-189 -202l204 -294h-159l-130 203l-73 -78v-125h-147z" />
<glyph unicode="l" d="M61 585v116h292v-513q0 -43 23 -62t58 -19q37 0 77 16l33 -108q-83 -27 -149 -27q-91 0 -140 55t-49 151v391h-145z" />
<glyph unicode="m" d="M35 0v496h111l10 -61h4q33 73 107 73q68 0 86 -81q32 81 110 81q53 0 82 -42.5t29 -117.5v-348h-140v338q0 45 -27 45q-24 0 -45 -48v-335h-115v338q0 45 -28 45q-25 0 -44 -48v-335h-140z" />
<glyph unicode="n" d="M72 0v496h120l11 -66h4q80 78 171 78q82 0 122 -52.5t40 -149.5v-306h-147v287q0 50 -16.5 73t-56.5 23q-28 0 -50.5 -12t-50.5 -40v-331h-147z" />
<glyph unicode="o" d="M47 248q0 119 74.5 189.5t178.5 70.5t178.5 -70.5t74.5 -189.5t-74.5 -189.5t-178.5 -70.5t-178.5 70.5t-74.5 189.5zM198 248q0 -66 26 -103.5t76 -37.5t76 37.5t26 103.5t-26 103.5t-76 37.5t-76 -37.5t-26 -103.5z" />
<glyph unicode="p" d="M72 -184v680h120l11 -50h3q69 62 148 62q92 0 145.5 -68.5t53.5 -183.5q0 -122 -63.5 -195t-151.5 -73q-68 0 -122 54h-4l7 -81v-145h-147zM219 141q38 -33 85 -33q44 0 71 36.5t27 109.5q0 134 -91 134q-47 0 -92 -46v-201z" />
<glyph unicode="q" d="M47 248q0 117 63.5 188.5t148.5 71.5q79 0 138 -63h4l12 51h115v-680h-147v149l7 80h-4q-57 -57 -128 -57q-95 0 -152 69.5t-57 190.5zM198 250q0 -142 96 -142q51 0 87 46v201q-37 33 -83 33q-43 0 -71.5 -35.5t-28.5 -102.5z" />
<glyph unicode="r" d="M116 0v496h120l12 -108h3q73 120 201 120q51 0 96 -20l-30 -123q-48 14 -88 14q-110 0 -167 -121v-258h-147z" />
<glyph unicode="s" d="M53 64l63 92q95 -59 200 -59q79 0 79 42q0 21 -24 32t-98 27q-100 21 -144.5 58.5t-44.5 96.5q0 70 61.5 112.5t166.5 42.5q108 0 215 -68l-66 -88q-78 47 -162 47q-69 0 -69 -39q0 -19 21.5 -28t93.5 -25q112 -26 153.5 -61t41.5 -98q0 -70 -64.5 -115t-179.5 -45 q-129 0 -243 76z" />
<glyph unicode="t" d="M49 381v109l132 6l19 152h121v-152h210v-115h-210v-174q0 -56 25 -80t80 -24q44 0 98 18l26 -106q-91 -27 -162 -27q-214 0 -214 218v175h-125z" />
<glyph unicode="u" d="M62 190v306h147v-287q0 -51 16 -73.5t56 -22.5q29 0 50.5 12.5t46.5 44.5v326h147v-496h-120l-11 71h-4q-73 -83 -167 -83q-161 0 -161 202z" />
<glyph unicode="v" d="M31 496h148l78 -234q9 -27 45 -153h4q5 18 13.5 49t16 56.5t14.5 47.5l78 234h141l-182 -496h-169z" />
<glyph unicode="w" d="M4 496h142l31 -230q3 -25 8 -74t8 -73h3q11 89 23 147l31 164h107l32 -164q14 -69 25 -147h4q4 29 8.5 81.5t5.5 65.5l28 230h136l-76 -496h-173l-27 161q-10 74 -18 147h-4q-6 -58 -17 -147l-26 -161h-170z" />
<glyph unicode="x" d="M37 0l172 258l-161 238h158l51 -80q9 -17 29.5 -49t22.5 -36h4q6 12 13 27t15.5 32t12.5 26l44 80h154l-162 -255l172 -241h-158l-57 82q-9 14 -28.5 43t-28.5 43h-4q-44 -82 -46 -86l-49 -82h-154z" />
<glyph unicode="y" d="M31 496h146l83 -213q21 -55 50 -149h4q4 15 45 149l73 213h139l-196 -501q-38 -99 -90 -144t-142 -45q-41 0 -76 10l26 112q19 -6 39 -6q77 0 104 65l10 26z" />
<glyph unicode="z" d="M70 0v79l259 302h-228v115h432v-78l-260 -303h267v-115h-470z" />
<glyph unicode="{" d="M106 235v86q137 3 137 74q0 30 -5 82.5t-5 88.5q0 79 43.5 110.5t142.5 31.5h77v-78h-41q-62 0 -82 -14t-20 -56q0 -26 2.5 -79.5t2.5 -83.5q0 -56 -23 -82t-77 -35v-4q54 -9 77 -35t23 -82q0 -31 -2.5 -84t-2.5 -79q0 -42 20 -56t82 -14h41v-78h-77q-99 0 -142.5 31.5 t-43.5 110.5q0 36 5 88t5 83q0 71 -137 74z" />
<glyph unicode="|" d="M235 -250v1000h130v-1000h-130z" />
<glyph unicode="}" d="M105 -74h41q61 0 81 14t20 56q0 26 -2 79t-2 84q0 56 22.5 82t77.5 35v4q-55 9 -77.5 35t-22.5 82q0 30 2 83.5t2 79.5q0 42 -20 56t-81 14h-41v78h77q99 0 142.5 -31.5t43.5 -110.5q0 -36 -5.5 -88.5t-5.5 -82.5q0 -71 138 -74v-86q-138 -3 -138 -74q0 -31 5.5 -83 t5.5 -88q0 -79 -43.5 -110.5t-142.5 -31.5h-77v78z" />
<glyph unicode="~" d="M52 275q59 145 163 145q35 0 66.5 -19t57.5 -38t48 -19q45 0 73 82l88 -41q-59 -145 -163 -145q-35 0 -66.5 19t-57.5 38t-48 19q-45 0 -73 -82z" />
<glyph unicode="&#xa0;" />
<glyph unicode="&#xa1;" d="M200 406q0 45 28.5 73.5t71.5 28.5t71.5 -28.5t28.5 -73.5q0 -44 -28.5 -72t-71.5 -28t-71.5 28t-28.5 72zM227 -174l5 133l20 282h96l20 -282l5 -133h-146z" />
<glyph unicode="&#xa2;" d="M96 307q0 103 59.5 169t155.5 82v97h81v-93q77 -7 124 -56l-67 -90q-30 24 -57 27v-272q36 6 72 35l59 -93q-57 -49 -131 -59v-95h-81v95q-99 13 -157 79.5t-58 173.5zM239 307q0 -94 72 -125v250q-72 -32 -72 -125z" />
<glyph unicode="&#xa3;" d="M67 0v91q54 21 86 61t32 92q0 14 -3 27h-112v86l84 5q-19 51 -19 80q0 93 63.5 149t164.5 56q113 0 186 -81l-79 -80q-40 42 -93 42q-103 0 -103 -94q0 -27 13 -72h169v-91h-146q2 -18 2 -28q0 -63 -53 -115v-4h291v-124h-483z" />
<glyph unicode="&#xa4;" d="M36 137l81 82q-34 46 -34 111q0 63 33 109l-80 82l73 74l89 -90q48 25 102 25q52 0 102 -25l89 90l73 -74l-81 -82q34 -45 34 -109q0 -63 -35 -111l82 -82l-73 -74l-90 91q-47 -24 -101 -24t-101 24l-90 -91zM214 330q0 -44 24.5 -71t61.5 -27t61.5 27t24.5 71t-24.5 71 t-61.5 27t-61.5 -27t-24.5 -71z" />
<glyph unicode="&#xa5;" d="M31 635h151l61 -133q51 -118 57 -131h4q38 88 57 131l61 133h147l-163 -293h137v-70h-170v-55h170v-70h-170v-147h-147v147h-169v70h169v55h-169v70h137z" />
<glyph unicode="&#xa6;" d="M235 190h130v-440h-130v440zM235 310v440h130v-440h-130z" />
<glyph unicode="&#xa7;" d="M71 326q0 37 22 71t60 57q-29 35 -29 83q0 69 47.5 111t130.5 42q97 0 182 -65l-68 -92q-55 48 -106 48q-54 0 -54 -39q0 -19 28 -36t68 -34t80.5 -39t68.5 -60.5t28 -88.5q0 -83 -84 -133q23 -35 23 -77q0 -70 -50.5 -114t-141.5 -44q-57 0 -110 21.5t-85 62.5l84 75 q51 -51 111 -51t60 43q0 21 -27.5 38t-66 33t-77.5 37t-66.5 60t-27.5 91zM195 337q0 -22 17.5 -40.5t38.5 -29t59.5 -27.5t58.5 -28q36 23 36 60q0 18 -9.5 33t-29.5 27t-38.5 20.5t-48 21t-47.5 21.5q-37 -22 -37 -58z" />
<glyph unicode="&#xa8;" d="M109 651q0 35 22.5 58t57.5 23t57.5 -23t22.5 -58q0 -34 -22.5 -57t-57.5 -23t-57.5 23t-22.5 57zM331 651q0 35 22.5 58t57.5 23t57.5 -23t22.5 -58q0 -34 -22.5 -57t-57.5 -23t-57.5 23t-22.5 57z" />
<glyph unicode="&#xa9;" d="M19 325q0 150 81.5 240t199.5 90t199.5 -90t81.5 -240q0 -151 -81.5 -242.5t-199.5 -91.5t-199.5 91.5t-81.5 242.5zM83 325q0 -123 59.5 -198t157.5 -75t157.5 75t59.5 198t-59.5 196.5t-157.5 73.5t-157.5 -73.5t-59.5 -196.5zM139 324q0 85 51 138.5t122 53.5 q63 0 112 -49l-55 -61q-24 24 -48 24q-36 0 -56 -30t-20 -76q0 -51 19 -81t52 -30q27 0 60 24l47 -68q-52 -42 -111 -42q-76 0 -124.5 54t-48.5 143z" />
<glyph unicode="&#xaa;" d="M145 467q0 109 213 120q-8 43 -65 43q-48 0 -100 -29l-37 68q78 44 158 44q69 0 107.5 -37.5t38.5 -112.5v-188h-83l-8 36h-2q-51 -44 -112 -44q-49 0 -79.5 29t-30.5 71zM245 477q0 -32 39 -32q37 0 74 27v56q-113 -8 -113 -51z" />
<glyph unicode="&#xab;" d="M42 179v146l171 154l62 -55l-127 -172l127 -172l-62 -55zM308 179v146l171 154l62 -55l-127 -172l127 -172l-62 -55z" />
<glyph unicode="&#xac;" d="M70 278v104h460v-288h-108v184h-352z" />
<glyph unicode="&#xad;" d="M70 278v104h460v-104h-460z" />
<glyph unicode="&#xae;" d="M101 513q0 87 57.5 144.5t140.5 57.5t140.5 -57.5t57.5 -144.5t-57.5 -144.5t-140.5 -57.5t-140.5 57.5t-57.5 144.5zM155 513q0 -69 40 -111t104 -42t104 42t40 111t-40 111t-104 42t-104 -42t-40 -111zM218 416v197h89q37 0 59 -16.5t22 -49.5q0 -38 -35 -54l42 -77 h-60l-30 60h-29v-60h-58zM276 516h20q31 0 31 28q0 26 -30 26h-21v-54z" />
<glyph unicode="&#xaf;" d="M152 592v93h296v-93h-296z" />
<glyph unicode="&#xb0;" d="M156 542q0 62 42 103t103 41t102.5 -41t41.5 -103t-41.5 -103t-102.5 -41t-103 41t-42 103zM234 542q0 -33 18.5 -53.5t48.5 -20.5t48.5 20.5t18.5 53.5q0 32 -18.5 52.5t-48.5 20.5t-48.5 -20.5t-18.5 -52.5z" />
<glyph unicode="&#xb1;" d="M70 0v104h460v-104h-460zM70 294v104h176v168h108v-168h176v-104h-176v-136h-108v136h-176z" />
<glyph unicode="&#xb2;" d="M129 697q61 81 159 81q70 0 112 -35t42 -97q0 -44 -30 -84t-94 -96h138v-90h-301l-8 57q101 74 146 117.5t45 76.5q0 29 -17.5 45.5t-49.5 16.5q-45 0 -81 -48z" />
<glyph unicode="&#xb3;" d="M129 442l65 51q35 -47 92 -47q29 0 48 12.5t19 33.5q0 51 -103 51v62q89 0 89 49q0 19 -16 30t-43 11q-42 0 -74 -39l-61 55q61 67 154 67q60 0 102.5 -30t42.5 -79q0 -60 -66 -90q38 -11 59.5 -36t21.5 -59q0 -53 -47.5 -86.5t-113.5 -33.5q-117 0 -169 78z" />
<glyph unicode="&#xb4;" d="M222 633l153 182l100 -98l-181 -156z" />
<glyph unicode="&#xb5;" d="M64 -196v692h147v-287q0 -52 16.5 -74t50.5 -22q58 0 98 75v308h148q-10 -232 -10 -348q0 -41 35 -41q10 0 18 2l18 -109q-27 -12 -74 -12q-94 0 -119 93h-3q-42 -88 -118 -88q-49 0 -69 25q2 -125 10 -214h-148z" />
<glyph unicode="&#xb6;" d="M48 429q0 118 65.5 170.5t172.5 52.5h42v-455h-40q-103 0 -171.5 61t-68.5 171zM380 -80v732h146v-732h-146z" />
<glyph unicode="&#xb7;" d="M184 353q0 50 32.5 84t83.5 34t83.5 -34t32.5 -84t-32.5 -83.5t-83.5 -33.5t-83.5 33.5t-32.5 83.5z" />
<glyph unicode="&#xb8;" d="M187 -180q58 3 80.5 13t22.5 31q0 32 -77 42l50 105h86l-30 -72q39 -9 57.5 -26.5t18.5 -48.5q0 -97 -197 -103z" />
<glyph unicode="&#xb9;" d="M166 376v90h121v190h-109v67q87 12 132 43h85v-300h105v-90h-334z" />
<glyph unicode="&#xba;" d="M133 539q0 79 49 126.5t118 47.5t118 -47.5t49 -126.5q0 -78 -49 -125t-118 -47t-118 47t-49 125zM239 539q0 -89 61 -89t61 89q0 90 -61 90t-61 -90z" />
<glyph unicode="&#xbb;" d="M59 80l127 172l-127 172l62 55l171 -154v-146l-171 -154zM325 80l127 172l-127 172l62 55l171 -154v-146l-171 -154z" />
<glyph unicode="&#xbc;" d="M17 101l186 173l51 -47l-162 -199zM53 536v64q59 8 105 36h83v-312h-107v212h-81zM288 61v51l96 212l76 -29l-77 -168h65v88h94v-88h51v-66h-51v-61h-94v61h-160zM346 425l162 199l75 -73l-186 -174z" />
<glyph unicode="&#xbd;" d="M17 101l186 173l51 -47l-162 -199zM53 536v64q59 8 105 36h83v-312h-107v212h-81zM299 259q63 65 134 65q60 0 95 -29t35 -80t-81 -128h92v-87h-260v55q146 96 146 142q0 41 -44 41q-29 0 -55 -35zM346 425l162 199l75 -73l-186 -174z" />
<glyph unicode="&#xbe;" d="M22 354l41 66q41 -29 82 -29q42 0 42 29q0 35 -73 35v55q61 0 61 32q0 27 -39 27q-24 0 -66 -25l-42 62q52 42 132 42q50 0 84.5 -25t34.5 -64q0 -28 -12.5 -44.5t-41.5 -26.5q66 -18 66 -76q0 -44 -38.5 -72t-94.5 -28q-80 0 -136 42zM24 101l186 173l51 -47l-162 -199z M288 61v51l96 212l76 -29l-77 -168h65v88h94v-88h51v-66h-51v-61h-94v61h-160zM353 425l162 199l75 -73l-186 -174z" />
<glyph unicode="&#xbf;" d="M103 -23q0 36 16.5 66t40 51t46.5 41.5t37 47t11 58.5h128q6 -37 -6 -69t-33.5 -54.5t-43.5 -41.5t-38.5 -39.5t-16.5 -40.5q0 -30 20.5 -46.5t53.5 -16.5q51 0 102 46l82 -74q-81 -91 -194 -91q-91 0 -148 42t-57 121zM214 406q0 45 28.5 73.5t71.5 28.5t71.5 -28.5 t28.5 -73.5q0 -44 -28.5 -72t-71.5 -28t-71.5 28t-28.5 72z" />
<glyph unicode="&#xc0;" d="M9 0l203 652h176l203 -652h-156l-39 155h-197l-40 -155h-150zM153 799l78 95l171 -140l-65 -74zM229 270h137l-15 60q-38 144 -52 210h-4q-31 -132 -51 -210z" />
<glyph unicode="&#xc1;" d="M9 0l203 652h176l203 -652h-156l-39 155h-197l-40 -155h-150zM198 754l171 140l78 -95l-184 -119zM229 270h137l-15 60q-38 144 -52 210h-4q-31 -132 -51 -210z" />
<glyph unicode="&#xc2;" d="M9 0l203 652h176l203 -652h-156l-39 155h-197l-40 -155h-150zM130 724l90 111h160l90 -111l-64 -39l-104 84h-4l-104 -84zM229 270h137l-15 60q-38 144 -52 210h-4q-31 -132 -51 -210z" />
<glyph unicode="&#xc3;" d="M9 0l203 652h176l203 -652h-156l-39 155h-197l-40 -155h-150zM102 708q4 73 38 108.5t89 35.5q40 0 82.5 -29t54.5 -29q32 0 37 49l95 -7q-4 -72 -38 -108t-89 -36q-40 0 -82.5 29t-54.5 29q-32 0 -37 -49zM229 270h137l-15 60q-38 144 -52 210h-4q-31 -132 -51 -210z " />
<glyph unicode="&#xc4;" d="M9 0l203 652h176l203 -652h-156l-39 155h-197l-40 -155h-150zM116 773q0 31 21 52t52 21q32 0 53 -20.5t21 -52.5q0 -31 -21 -52t-53 -21q-31 0 -52 21t-21 52zM229 270h137l-15 60q-38 144 -52 210h-4q-31 -132 -51 -210zM337 773q0 32 21 52.5t53 20.5q31 0 52 -21 t21 -52t-21 -52t-52 -21q-32 0 -53 21t-21 52z" />
<glyph unicode="&#xc5;" d="M9 0l203 652h176l203 -652h-156l-39 155h-197l-40 -155h-150zM186 796q0 45 31.5 71.5t82.5 26.5t82.5 -26.5t31.5 -71.5t-31.5 -72t-82.5 -27t-82.5 27t-31.5 72zM229 270h137l-15 60q-38 144 -52 210h-4q-31 -132 -51 -210zM258 796q0 -20 12 -32t30 -12t30 12t12 32 q0 19 -12 31t-30 12t-30 -12t-12 -31z" />
<glyph unicode="&#xc6;" d="M-3 0l218 652h371v-124h-145v-129h118v-124h-118v-151h154v-124h-284v149h-118l-45 -149h-151zM227 263h84v278h-3q-10 -38 -29 -103.5t-24 -81.5z" />
<glyph unicode="&#xc7;" d="M54 322q0 158 88 250t223 92q110 0 195 -83l-81 -91q-52 47 -114 47q-70 0 -115 -57t-45 -153q0 -99 45.5 -155.5t120.5 -56.5q65 0 118 58l81 -89q-74 -86 -187 -95l-21 -50q39 -9 57.5 -26.5t18.5 -48.5q0 -97 -197 -103l-11 59q58 3 80.5 13t22.5 31q0 32 -77 42 l42 87q-107 20 -175.5 105.5t-68.5 223.5z" />
<glyph unicode="&#xc8;" d="M92 0v652h432v-124h-284v-131h241v-123h-241v-150h294v-124h-442zM176 799l78 95l171 -140l-65 -74z" />
<glyph unicode="&#xc9;" d="M92 0v652h432v-124h-284v-131h241v-123h-241v-150h294v-124h-442zM221 754l171 140l78 -95l-184 -119z" />
<glyph unicode="&#xca;" d="M92 0v652h432v-124h-284v-131h241v-123h-241v-150h294v-124h-442zM153 724l90 111h160l90 -111l-64 -39l-104 84h-4l-104 -84z" />
<glyph unicode="&#xcb;" d="M92 0v652h432v-124h-284v-131h241v-123h-241v-150h294v-124h-442zM139 773q0 31 20.5 52t52.5 21t53 -20.5t21 -52.5q0 -31 -21 -52t-53 -21q-31 0 -52 21t-21 52zM360 773q0 32 21 52.5t53 20.5t52.5 -21t20.5 -52t-21 -52t-52 -21q-32 0 -53 21t-21 52z" />
<glyph unicode="&#xcc;" d="M74 0v124h152v404h-152v124h452v-124h-152v-404h152v-124h-452zM153 799l78 95l171 -140l-65 -74z" />
<glyph unicode="&#xcd;" d="M74 0v124h152v404h-152v124h452v-124h-152v-404h152v-124h-452zM198 754l171 140l78 -95l-184 -119z" />
<glyph unicode="&#xce;" d="M74 0v124h152v404h-152v124h452v-124h-152v-404h152v-124h-452zM130 724l90 111h160l90 -111l-64 -39l-104 84h-4l-104 -84z" />
<glyph unicode="&#xcf;" d="M74 0v124h152v404h-152v124h452v-124h-152v-404h152v-124h-452zM116 773q0 31 21 52t52 21q32 0 53 -20.5t21 -52.5q0 -31 -21 -52t-53 -21q-31 0 -52 21t-21 52zM337 773q0 32 21 52.5t53 20.5q31 0 52 -21t21 -52t-21 -52t-52 -21q-32 0 -53 21t-21 52z" />
<glyph unicode="&#xd0;" d="M0 298v69l70 6v279h181q147 0 230 -80t83 -243t-82.5 -246t-222.5 -83h-189v298h-70zM218 119h24q171 0 171 210q0 110 -44.5 157t-126.5 47h-24v-160h108v-75h-108v-179z" />
<glyph unicode="&#xd1;" d="M66 0v652h151l137 -324l56 -144h4q-1 15 -7.5 69t-10 93.5t-3.5 74.5v231h141v-652h-151l-137 325l-56 142h-4q2 -20 8 -71t9.5 -91t3.5 -74v-231h-141zM112 708q4 73 38 108.5t89 35.5q40 0 82.5 -29t54.5 -29q32 0 37 49l95 -7q-4 -72 -38 -108t-89 -36q-40 0 -82.5 29 t-54.5 29q-32 0 -37 -49z" />
<glyph unicode="&#xd2;" d="M38 329q0 160 71.5 247.5t190.5 87.5t190.5 -87.5t71.5 -247.5q0 -163 -71.5 -252t-190.5 -89t-190.5 89t-71.5 252zM153 799l78 95l171 -140l-65 -74zM189 329q0 -104 29.5 -159t81.5 -55t81.5 55t29.5 159q0 100 -29.5 154t-81.5 54t-81.5 -54t-29.5 -154z" />
<glyph unicode="&#xd3;" d="M38 329q0 160 71.5 247.5t190.5 87.5t190.5 -87.5t71.5 -247.5q0 -163 -71.5 -252t-190.5 -89t-190.5 89t-71.5 252zM189 329q0 -104 29.5 -159t81.5 -55t81.5 55t29.5 159q0 100 -29.5 154t-81.5 54t-81.5 -54t-29.5 -154zM198 754l171 140l78 -95l-184 -119z" />
<glyph unicode="&#xd4;" d="M38 329q0 160 71.5 247.5t190.5 87.5t190.5 -87.5t71.5 -247.5q0 -163 -71.5 -252t-190.5 -89t-190.5 89t-71.5 252zM130 724l90 111h160l90 -111l-64 -39l-104 84h-4l-104 -84zM189 329q0 -104 29.5 -159t81.5 -55t81.5 55t29.5 159q0 100 -29.5 154t-81.5 54t-81.5 -54 t-29.5 -154z" />
<glyph unicode="&#xd5;" d="M38 329q0 160 71.5 247.5t190.5 87.5t190.5 -87.5t71.5 -247.5q0 -163 -71.5 -252t-190.5 -89t-190.5 89t-71.5 252zM102 708q4 73 38 108.5t89 35.5q40 0 82.5 -29t54.5 -29q32 0 37 49l95 -7q-4 -72 -38 -108t-89 -36q-40 0 -82.5 29t-54.5 29q-32 0 -37 -49zM189 329 q0 -104 29.5 -159t81.5 -55t81.5 55t29.5 159q0 100 -29.5 154t-81.5 54t-81.5 -54t-29.5 -154z" />
<glyph unicode="&#xd6;" d="M38 329q0 160 71.5 247.5t190.5 87.5t190.5 -87.5t71.5 -247.5q0 -163 -71.5 -252t-190.5 -89t-190.5 89t-71.5 252zM116 773q0 31 21 52t52 21q32 0 53 -20.5t21 -52.5q0 -31 -21 -52t-53 -21q-31 0 -52 21t-21 52zM189 329q0 -104 29.5 -159t81.5 -55t81.5 55t29.5 159 q0 100 -29.5 154t-81.5 54t-81.5 -54t-29.5 -154zM337 773q0 32 21 52.5t53 20.5q31 0 52 -21t21 -52t-21 -52t-52 -21q-32 0 -53 21t-21 52z" />
<glyph unicode="&#xd7;" d="M84 186l142 143l-142 144l73 74l143 -144l143 144l73 -74l-142 -144l142 -143l-73 -74l-143 144l-143 -144z" />
<glyph unicode="&#xd8;" d="M19 10l69 98q-50 86 -50 221q0 160 71.5 247.5t190.5 87.5q86 0 147 -45l53 75l80 -52l-68 -97q50 -84 50 -216q0 -163 -71.5 -252t-190.5 -89q-84 0 -147 46l-54 -76zM189 329q0 -43 4 -71l174 247q-27 32 -67 32q-52 0 -81.5 -54t-29.5 -154zM233 148q27 -33 67 -33 q52 0 81.5 55t29.5 159q0 40 -4 67z" />
<glyph unicode="&#xd9;" d="M64 251v401h147v-416q0 -121 91 -121q92 0 92 121v416h142v-401q0 -128 -58.5 -195.5t-175.5 -67.5q-118 0 -178 67.5t-60 195.5zM153 799l78 95l171 -140l-65 -74z" />
<glyph unicode="&#xda;" d="M64 251v401h147v-416q0 -121 91 -121q92 0 92 121v416h142v-401q0 -128 -58.5 -195.5t-175.5 -67.5q-118 0 -178 67.5t-60 195.5zM198 754l171 140l78 -95l-184 -119z" />
<glyph unicode="&#xdb;" d="M64 251v401h147v-416q0 -121 91 -121q92 0 92 121v416h142v-401q0 -128 -58.5 -195.5t-175.5 -67.5q-118 0 -178 67.5t-60 195.5zM130 724l90 111h160l90 -111l-64 -39l-104 84h-4l-104 -84z" />
<glyph unicode="&#xdc;" d="M64 251v401h147v-416q0 -121 91 -121q92 0 92 121v416h142v-401q0 -128 -58.5 -195.5t-175.5 -67.5q-118 0 -178 67.5t-60 195.5zM116 773q0 31 21 52t52 21q32 0 53 -20.5t21 -52.5q0 -31 -21 -52t-53 -21q-31 0 -52 21t-21 52zM337 773q0 32 21 52.5t53 20.5 q31 0 52 -21t21 -52t-21 -52t-52 -21q-32 0 -53 21t-21 52z" />
<glyph unicode="&#xdd;" d="M16 652h158l66 -157q10 -26 30 -75t29 -74h4q10 24 30 73t31 76l66 157h154l-210 -432v-220h-148v220zM198 754l171 140l78 -95l-184 -119z" />
<glyph unicode="&#xde;" d="M73 0v652h147v-99h91q255 0 255 -209q0 -110 -72 -165.5t-183 -55.5h-91v-123h-147zM220 240h82q119 0 119 104q0 50 -29.5 71t-89.5 21h-82v-196z" />
<glyph unicode="&#xdf;" d="M61 0v495q0 97 58 157.5t169 60.5q91 0 140 -49.5t49 -119.5q0 -41 -15.5 -74t-30.5 -57.5t-15 -44.5q0 -18 16 -33.5t39 -30t45.5 -32.5t38.5 -49t16 -71q0 -71 -46 -117.5t-128 -46.5q-70 0 -139 37l49 100q43 -28 85 -28q20 0 31.5 11.5t11.5 31.5q0 21 -16 38 t-38.5 31.5t-45.5 31t-39 44.5t-16 65q0 40 30 94t30 92q0 26 -14.5 43.5t-38.5 17.5q-79 0 -79 -111v-486h-147z" />
<glyph unicode="&#xe0;" d="M61 138q0 84 76.5 127.5t250.5 53.5q-8 72 -106 72q-59 0 -151 -46l-52 96q117 67 232 67q107 0 165.5 -56t58.5 -168v-284h-120l-11 56h-4q-89 -68 -176 -68q-73 0 -118 43t-45 107zM145 717l100 98l153 -182l-72 -72zM202 149q0 -47 69 -47q56 0 117 47v82 q-103 -6 -144.5 -26.5t-41.5 -55.5z" />
<glyph unicode="&#xe1;" d="M61 138q0 84 76.5 127.5t250.5 53.5q-8 72 -106 72q-59 0 -151 -46l-52 96q117 67 232 67q107 0 165.5 -56t58.5 -168v-284h-120l-11 56h-4q-89 -68 -176 -68q-73 0 -118 43t-45 107zM202 149q0 -47 69 -47q56 0 117 47v82q-103 -6 -144.5 -26.5t-41.5 -55.5zM242 633 l153 182l100 -98l-181 -156z" />
<glyph unicode="&#xe2;" d="M61 138q0 84 76.5 127.5t250.5 53.5q-8 72 -106 72q-59 0 -151 -46l-52 96q117 67 232 67q107 0 165.5 -56t58.5 -168v-284h-120l-11 56h-4q-89 -68 -176 -68q-73 0 -118 43t-45 107zM137 613l108 131h150l108 -131l-56 -52l-125 92h-4l-125 -92zM202 149q0 -47 69 -47 q56 0 117 47v82q-103 -6 -144.5 -26.5t-41.5 -55.5z" />
<glyph unicode="&#xe3;" d="M61 138q0 84 76.5 127.5t250.5 53.5q-8 72 -106 72q-59 0 -151 -46l-52 96q117 67 232 67q107 0 165.5 -56t58.5 -168v-284h-120l-11 56h-4q-89 -68 -176 -68q-73 0 -118 43t-45 107zM130 587q4 152 124 152q36 0 76.5 -32t52.5 -32q29 0 35 55l92 -5q-4 -152 -124 -152 q-27 0 -52.5 16t-45 32t-31.5 16q-29 0 -35 -55zM202 149q0 -47 69 -47q56 0 117 47v82q-103 -6 -144.5 -26.5t-41.5 -55.5z" />
<glyph unicode="&#xe4;" d="M61 138q0 84 76.5 127.5t250.5 53.5q-8 72 -106 72q-59 0 -151 -46l-52 96q117 67 232 67q107 0 165.5 -56t58.5 -168v-284h-120l-11 56h-4q-89 -68 -176 -68q-73 0 -118 43t-45 107zM129 651q0 35 22.5 58t57.5 23t57.5 -23t22.5 -58q0 -34 -22.5 -57t-57.5 -23 t-57.5 23t-22.5 57zM202 149q0 -47 69 -47q56 0 117 47v82q-103 -6 -144.5 -26.5t-41.5 -55.5zM351 651q0 35 22.5 58t57.5 23t57.5 -23t22.5 -58q0 -34 -22.5 -57t-57.5 -23t-57.5 23t-22.5 57z" />
<glyph unicode="&#xe5;" d="M61 138q0 84 76.5 127.5t250.5 53.5q-8 72 -106 72q-59 0 -151 -46l-52 96q117 67 232 67q107 0 165.5 -56t58.5 -168v-284h-120l-11 56h-4q-89 -68 -176 -68q-73 0 -118 43t-45 107zM188 672q0 44 34.5 73.5t97.5 29.5t97.5 -29.5t34.5 -73.5q0 -45 -34.5 -74.5 t-97.5 -29.5t-97.5 29.5t-34.5 74.5zM202 149q0 -47 69 -47q56 0 117 47v82q-103 -6 -144.5 -26.5t-41.5 -55.5zM277 672q0 -21 12.5 -35t30.5 -14t30.5 14t12.5 35t-12.5 34.5t-30.5 13.5t-30.5 -13.5t-12.5 -34.5z" />
<glyph unicode="&#xe6;" d="M16 130q0 78 55.5 122.5t170.5 61.5q-6 77 -61 77q-43 0 -100 -34l-52 96q92 55 162 55q78 0 119 -73q47 73 126 73q75 0 116 -68t41 -171q0 -23 -6 -65h-232q8 -50 33.5 -75.5t62.5 -25.5t76 27l51 -95q-60 -47 -133 -47q-96 0 -152 74q-69 -74 -144 -74q-59 0 -96 40 t-37 102zM147 148q0 -22 13 -34t34 -12q30 0 62 32q-13 39 -13 88v5q-96 -16 -96 -79zM355 297h123q-2 52 -15 75.5t-39 23.5q-24 0 -43.5 -24.5t-25.5 -74.5z" />
<glyph unicode="&#xe7;" d="M67 248q0 119 83.5 189.5t203.5 70.5q114 0 186 -67l-68 -91q-55 39 -110 39q-64 0 -104 -38.5t-40 -102.5t38.5 -102.5t100.5 -38.5q63 0 131 47l59 -93q-72 -59 -165 -70l-21 -52q39 -9 57.5 -26.5t18.5 -48.5q0 -97 -197 -103l-11 59q58 3 80.5 13t22.5 31 q0 32 -77 42l41 85q-103 14 -166 81.5t-63 175.5z" />
<glyph unicode="&#xe8;" d="M55 248q0 117 76.5 188.5t181.5 71.5q111 0 172.5 -66.5t61.5 -171.5q0 -24 -7 -66h-338q20 -104 148 -104q61 0 128 35l49 -89q-92 -58 -197 -58q-120 0 -197.5 69.5t-77.5 190.5zM137 717l100 98l153 -182l-72 -72zM204 303h212q-11 93 -98 93q-92 0 -114 -93z" />
<glyph unicode="&#xe9;" d="M55 248q0 117 76.5 188.5t181.5 71.5q111 0 172.5 -66.5t61.5 -171.5q0 -24 -7 -66h-338q20 -104 148 -104q61 0 128 35l49 -89q-92 -58 -197 -58q-120 0 -197.5 69.5t-77.5 190.5zM204 303h212q-11 93 -98 93q-92 0 -114 -93zM234 633l153 182l100 -98l-181 -156z" />
<glyph unicode="&#xea;" d="M55 248q0 117 76.5 188.5t181.5 71.5q111 0 172.5 -66.5t61.5 -171.5q0 -24 -7 -66h-338q20 -104 148 -104q61 0 128 35l49 -89q-92 -58 -197 -58q-120 0 -197.5 69.5t-77.5 190.5zM129 613l108 131h150l108 -131l-56 -52l-125 92h-4l-125 -92zM204 303h212 q-11 93 -98 93q-92 0 -114 -93z" />
<glyph unicode="&#xeb;" d="M55 248q0 117 76.5 188.5t181.5 71.5q111 0 172.5 -66.5t61.5 -171.5q0 -24 -7 -66h-338q20 -104 148 -104q61 0 128 35l49 -89q-92 -58 -197 -58q-120 0 -197.5 69.5t-77.5 190.5zM121 651q0 35 22.5 58t57.5 23t57.5 -23t22.5 -58q0 -34 -22.5 -57t-57.5 -23t-57.5 23 t-22.5 57zM204 303h212q-11 93 -98 93q-92 0 -114 -93zM343 651q0 35 22.5 58t57.5 23t57.5 -23t22.5 -58q0 -34 -22.5 -57t-57.5 -23t-57.5 23t-22.5 57z" />
<glyph unicode="&#xec;" d="M79 381v115h346v-496h-147v381h-199zM170 717l100 98l153 -182l-72 -72z" />
<glyph unicode="&#xed;" d="M79 381v115h346v-496h-147v381h-199zM267 633l153 182l100 -98l-181 -156z" />
<glyph unicode="&#xee;" d="M79 381v115h346v-496h-147v381h-199zM162 613l108 131h150l108 -131l-56 -52l-125 92h-4l-125 -92z" />
<glyph unicode="&#xef;" d="M79 381v115h346v-496h-147v381h-199zM154 651q0 35 22.5 58t57.5 23t57.5 -23t22.5 -58q0 -34 -22.5 -57t-57.5 -23t-57.5 23t-22.5 57zM376 651q0 35 22.5 58t57.5 23t57.5 -23t22.5 -58q0 -34 -22.5 -57t-57.5 -23t-57.5 23t-22.5 57z" />
<glyph unicode="&#xf0;" d="M47 228q0 103 65 165t156 62q81 0 126 -56q-26 87 -96 149l-150 -75l-40 68l119 60q-42 27 -92 50l64 89q80 -37 144 -81l137 69l40 -68l-111 -56q141 -133 141 -338q0 -123 -68.5 -200.5t-186.5 -77.5q-104 0 -176 66.5t-72 173.5zM181 228q0 -57 34 -89t85 -32 q52 0 82.5 39t30.5 112q0 23 -1 34q-47 54 -114 54q-55 0 -86 -29.5t-31 -88.5z" />
<glyph unicode="&#xf1;" d="M72 0v496h120l11 -66h4q80 78 171 78q82 0 122 -52.5t40 -149.5v-306h-147v287q0 50 -16.5 73t-56.5 23q-28 0 -50.5 -12t-50.5 -40v-331h-147zM125 587q4 152 124 152q35 0 76 -32t53 -32q29 0 35 55l92 -5q-4 -152 -124 -152q-36 0 -76.5 32t-52.5 32q-29 0 -35 -55z " />
<glyph unicode="&#xf2;" d="M47 248q0 119 74.5 189.5t178.5 70.5t178.5 -70.5t74.5 -189.5t-74.5 -189.5t-178.5 -70.5t-178.5 70.5t-74.5 189.5zM125 717l100 98l153 -182l-72 -72zM198 248q0 -66 26 -103.5t76 -37.5t76 37.5t26 103.5t-26 103.5t-76 37.5t-76 -37.5t-26 -103.5z" />
<glyph unicode="&#xf3;" d="M47 248q0 119 74.5 189.5t178.5 70.5t178.5 -70.5t74.5 -189.5t-74.5 -189.5t-178.5 -70.5t-178.5 70.5t-74.5 189.5zM198 248q0 -66 26 -103.5t76 -37.5t76 37.5t26 103.5t-26 103.5t-76 37.5t-76 -37.5t-26 -103.5zM222 633l153 182l100 -98l-181 -156z" />
<glyph unicode="&#xf4;" d="M47 248q0 119 74.5 189.5t178.5 70.5t178.5 -70.5t74.5 -189.5t-74.5 -189.5t-178.5 -70.5t-178.5 70.5t-74.5 189.5zM117 613l108 131h150l108 -131l-56 -52l-125 92h-4l-125 -92zM198 248q0 -66 26 -103.5t76 -37.5t76 37.5t26 103.5t-26 103.5t-76 37.5t-76 -37.5 t-26 -103.5z" />
<glyph unicode="&#xf5;" d="M47 248q0 119 74.5 189.5t178.5 70.5t178.5 -70.5t74.5 -189.5t-74.5 -189.5t-178.5 -70.5t-178.5 70.5t-74.5 189.5zM110 587q4 152 124 152q27 0 52.5 -16t45 -32t31.5 -16q29 0 35 55l92 -5q-4 -152 -124 -152q-27 0 -52.5 16t-45 32t-31.5 16q-29 0 -35 -55zM198 248 q0 -66 26 -103.5t76 -37.5t76 37.5t26 103.5t-26 103.5t-76 37.5t-76 -37.5t-26 -103.5z" />
<glyph unicode="&#xf6;" d="M47 248q0 119 74.5 189.5t178.5 70.5t178.5 -70.5t74.5 -189.5t-74.5 -189.5t-178.5 -70.5t-178.5 70.5t-74.5 189.5zM109 651q0 35 22.5 58t57.5 23t57.5 -23t22.5 -58q0 -34 -22.5 -57t-57.5 -23t-57.5 23t-22.5 57zM198 248q0 -66 26 -103.5t76 -37.5t76 37.5 t26 103.5t-26 103.5t-76 37.5t-76 -37.5t-26 -103.5zM331 651q0 35 22.5 58t57.5 23t57.5 -23t22.5 -58q0 -34 -22.5 -57t-57.5 -23t-57.5 23t-22.5 57z" />
<glyph unicode="&#xf7;" d="M70 278v104h460v-104h-460zM219 150q0 34 23 55.5t58 21.5t58 -21.5t23 -55.5t-23 -55.5t-58 -21.5t-58 21.5t-23 55.5zM219 510q0 34 23 55.5t58 21.5t58 -21.5t23 -55.5t-23 -55.5t-58 -21.5t-58 21.5t-23 55.5z" />
<glyph unicode="&#xf8;" d="M47 248q0 119 74.5 189.5t178.5 70.5q75 0 136 -38l46 55l57 -47l-47 -56q61 -69 61 -174q0 -119 -74.5 -189.5t-178.5 -70.5q-77 0 -137 39l-45 -54l-57 46l46 55q-60 71 -60 174zM198 248q0 -32 6 -57l153 184q-24 19 -57 19q-50 0 -76 -39.5t-26 -106.5zM242 122 q23 -20 58 -20q50 0 76 39.5t26 106.5q0 32 -6 58z" />
<glyph unicode="&#xf9;" d="M62 190v306h147v-287q0 -51 16 -73.5t56 -22.5q29 0 50.5 12.5t46.5 44.5v326h147v-496h-120l-11 71h-4q-73 -83 -167 -83q-161 0 -161 202zM121 717l100 98l153 -182l-72 -72z" />
<glyph unicode="&#xfa;" d="M62 190v306h147v-287q0 -51 16 -73.5t56 -22.5q29 0 50.5 12.5t46.5 44.5v326h147v-496h-120l-11 71h-4q-73 -83 -167 -83q-161 0 -161 202zM218 633l153 182l100 -98l-181 -156z" />
<glyph unicode="&#xfb;" d="M62 190v306h147v-287q0 -51 16 -73.5t56 -22.5q29 0 50.5 12.5t46.5 44.5v326h147v-496h-120l-11 71h-4q-73 -83 -167 -83q-161 0 -161 202zM113 613l108 131h150l108 -131l-56 -52l-125 92h-4l-125 -92z" />
<glyph unicode="&#xfc;" d="M62 190v306h147v-287q0 -51 16 -73.5t56 -22.5q29 0 50.5 12.5t46.5 44.5v326h147v-496h-120l-11 71h-4q-73 -83 -167 -83q-161 0 -161 202zM105 651q0 35 22.5 58t57.5 23t57.5 -23t22.5 -58q0 -34 -22.5 -57t-57.5 -23t-57.5 23t-22.5 57zM327 651q0 35 22.5 58 t57.5 23t57.5 -23t22.5 -58q0 -34 -22.5 -57t-57.5 -23t-57.5 23t-22.5 57z" />
<glyph unicode="&#xfd;" d="M31 496h146l83 -213q21 -55 50 -149h4q4 15 45 149l73 213h139l-196 -501q-38 -99 -90 -144t-142 -45q-41 0 -76 10l26 112q19 -6 39 -6q77 0 104 65l10 26zM230 633l153 182l100 -98l-181 -156z" />
<glyph unicode="&#xfe;" d="M72 -184v885h147v-173l-5 -77h3q60 57 137 57q92 0 145.5 -68.5t53.5 -183.5q0 -122 -64 -195t-150 -73q-68 0 -122 54h-3l5 -81v-145h-147zM219 141q37 -33 85 -33q43 0 70.5 36.5t27.5 109.5q0 134 -92 134q-46 0 -91 -46v-201z" />
<glyph unicode="&#xff;" d="M31 496h146l83 -213q21 -55 50 -149h4q4 15 45 149l73 213h139l-196 -501q-38 -99 -90 -144t-142 -45q-41 0 -76 10l26 112q19 -6 39 -6q77 0 104 65l10 26zM117 651q0 35 22.5 58t57.5 23t57.5 -23t22.5 -58q0 -34 -22.5 -57t-57.5 -23t-57.5 23t-22.5 57zM339 651 q0 35 22.5 58t57.5 23t57.5 -23t22.5 -58q0 -34 -22.5 -57t-57.5 -23t-57.5 23t-22.5 57z" />
<glyph unicode="&#x152;" d="M19 329q0 161 75.5 242t200.5 81h290v-123h-160v-132h121v-123h-121v-150h170v-124h-308q-121 0 -194.5 83.5t-73.5 245.5zM170 329q0 -113 27.5 -161.5t80.5 -48.5h16v414h-16q-53 0 -80.5 -46t-27.5 -158z" />
<glyph unicode="&#x153;" d="M12 248q0 120 53 190t132 70q83 0 119 -91q18 46 51.5 68.5t70.5 22.5q73 0 114 -68t41 -171q0 -23 -6 -65h-228q8 -50 33.5 -75.5t60.5 -25.5t74 27l51 -95q-60 -47 -130 -47q-40 0 -76 21t-55 65q-37 -86 -123 -86q-78 0 -130 70t-52 190zM144 248q0 -141 61 -141 q26 0 40.5 38t14.5 103t-14.5 103.5t-40.5 38.5q-61 0 -61 -142zM359 297h119q-2 52 -15 75.5t-39 23.5q-23 0 -41 -24.5t-24 -74.5z" />
<glyph unicode="&#x178;" d="M16 652h158l66 -157q10 -26 30 -75t29 -74h4q10 24 30 73t31 76l66 157h154l-210 -432v-220h-148v220zM116 773q0 31 21 52t52 21q32 0 53 -20.5t21 -52.5q0 -31 -21 -52t-53 -21q-31 0 -52 21t-21 52zM337 773q0 32 21 52.5t53 20.5q31 0 52 -21t21 -52t-21 -52t-52 -21 q-32 0 -53 21t-21 52z" />
<glyph unicode="&#x2c6;" d="M117 613l108 131h150l108 -131l-56 -52l-125 92h-4l-125 -92z" />
<glyph unicode="&#x2dc;" d="M110 587q4 152 124 152q27 0 52.5 -16t45 -32t31.5 -16q29 0 35 55l92 -5q-4 -152 -124 -152q-27 0 -52.5 16t-45 32t-31.5 16q-29 0 -35 -55z" />
<glyph unicode="&#x2000;" horiz-adv-x="447" />
<glyph unicode="&#x2001;" horiz-adv-x="894" />
<glyph unicode="&#x2002;" horiz-adv-x="447" />
<glyph unicode="&#x2003;" horiz-adv-x="894" />
<glyph unicode="&#x2004;" horiz-adv-x="298" />
<glyph unicode="&#x2005;" horiz-adv-x="223" />
<glyph unicode="&#x2006;" horiz-adv-x="149" />
<glyph unicode="&#x2007;" horiz-adv-x="149" />
<glyph unicode="&#x2008;" horiz-adv-x="111" />
<glyph unicode="&#x2009;" horiz-adv-x="178" />
<glyph unicode="&#x200a;" horiz-adv-x="49" />
<glyph unicode="&#x2010;" d="M70 278v104h460v-104h-460z" />
<glyph unicode="&#x2011;" d="M70 278v104h460v-104h-460z" />
<glyph unicode="&#x2012;" d="M70 278v104h460v-104h-460z" />
<glyph unicode="&#x2013;" d="M80 199v111h440v-111h-440z" />
<glyph unicode="&#x2014;" d="M0 199v111h600v-111h-600z" />
<glyph unicode="&#x2018;" d="M184 450q0 168 175 247l38 -78q-105 -49 -112 -140q11 3 21 3q40 0 65.5 -25t25.5 -66q0 -45 -27 -73t-69 -28q-55 0 -86 42t-31 118z" />
<glyph unicode="&#x2019;" d="M202 368q105 47 111 139q-9 -3 -19 -3q-41 0 -66.5 25.5t-25.5 66.5q0 45 27 73t69 28q56 0 86.5 -42.5t30.5 -117.5q0 -167 -174 -247z" />
<glyph unicode="&#x201a;" d="M202 75q0 45 27 73t69 28q56 0 86.5 -42.5t30.5 -117.5q0 -168 -174 -247l-39 78q105 47 111 139q-9 -3 -19 -3q-41 0 -66.5 25.5t-25.5 66.5z" />
<glyph unicode="&#x201c;" d="M51 450q0 168 175 247l38 -78q-105 -49 -112 -140q10 3 21 3q40 0 65.5 -25t25.5 -66q0 -45 -27 -73t-69 -28q-55 0 -86 42t-31 118zM317 450q0 168 175 247l38 -78q-105 -49 -112 -140q10 3 21 3q40 0 65.5 -25t25.5 -66q0 -45 -27 -73t-69 -28q-55 0 -86 42t-31 118z " />
<glyph unicode="&#x201d;" d="M69 368q105 47 111 139q-9 -3 -19 -3q-41 0 -66.5 25.5t-25.5 66.5q0 45 27 73t69 28q56 0 86.5 -42.5t30.5 -117.5q0 -167 -174 -247zM335 368q105 47 111 139q-9 -3 -19 -3q-41 0 -66.5 25.5t-25.5 66.5q0 45 27 73t69 28q56 0 86.5 -42.5t30.5 -117.5 q0 -167 -174 -247z" />
<glyph unicode="&#x201e;" d="M69 75q0 45 27 73t69 28q56 0 86.5 -42.5t30.5 -117.5q0 -168 -174 -247l-39 78q105 47 111 139q-9 -3 -19 -3q-41 0 -66.5 25.5t-25.5 66.5zM335 75q0 45 27 73t69 28q56 0 86.5 -42.5t30.5 -117.5q0 -168 -174 -247l-39 78q105 47 111 139q-9 -3 -19 -3 q-41 0 -66.5 25.5t-25.5 66.5z" />
<glyph unicode="&#x2022;" d="M136 262q0 69 47 115t117 46t117 -46t47 -115t-47 -115t-117 -46t-117 46t-47 115z" />
<glyph unicode="&#x2026;" d="M-1 84q0 41 25.5 68.5t66.5 27.5t66.5 -27.5t25.5 -68.5t-25.5 -68.5t-66.5 -27.5t-66.5 27.5t-25.5 68.5zM208 84q0 41 25.5 68.5t66.5 27.5t66.5 -27.5t25.5 -68.5t-25.5 -68.5t-66.5 -27.5t-66.5 27.5t-25.5 68.5zM417 84q0 41 25.5 68.5t66.5 27.5t66.5 -27.5 t25.5 -68.5t-25.5 -68.5t-66.5 -27.5t-66.5 27.5t-25.5 68.5z" />
<glyph unicode="&#x202f;" horiz-adv-x="178" />
<glyph unicode="&#x2039;" d="M175 179v146l171 154l62 -55l-127 -172l127 -172l-62 -55z" />
<glyph unicode="&#x203a;" d="M192 80l127 172l-127 172l62 55l171 -154v-146l-171 -154z" />
<glyph unicode="&#x205f;" horiz-adv-x="223" />
<glyph unicode="&#x20ac;" d="M45 219v68l54 4v23q0 20 1 29h-55v69l65 4q25 109 100 170t182 61t183 -78l-81 -79q-53 43 -107 43q-100 0 -130 -116h252v-74h-262q-1 -8 -1 -24q0 -18 1 -26h222v-74h-211q31 -117 132 -117q64 0 112 54l81 -76q-84 -92 -202 -92q-104 0 -177 60t-96 171h-63z" />
<glyph unicode="&#x2122;" d="M-13 589v87h253v-87h-78v-227h-96v227h-79zM275 362v314h103l34 -94l21 -71h4l20 71l34 94h103v-314h-84v96l11 115h-4l-53 -148h-58l-54 148h-4l11 -115v-96h-84z" />
<glyph unicode="&#xfb01;" d="M7 381v109l66 5v27q0 86 44 138.5t139 52.5q50 0 99 -18l-27 -108q-27 10 -51 10q-57 0 -57 -71v-30h90v-115h-90v-381h-147v381h-66zM382 663q0 40 27.5 66t70.5 26t70.5 -26t27.5 -66t-27.5 -64.5t-70.5 -24.5t-70.5 24.5t-27.5 64.5zM407 0v496h147v-496h-147z" />
<glyph unicode="&#xfb02;" d="M11 381v109l66 5v27q0 86 44 138.5t139 52.5q50 0 99 -18l-27 -108q-27 10 -51 10q-57 0 -57 -71v-30h90v-115h-90v-381h-147v381h-66zM393 154v547h147v-553q0 -21 8 -31t19 -10q9 0 18 2l17 -109q-27 -12 -74 -12q-135 0 -135 166z" />
</font>
</defs>
</svg>
